<?xml version="1.0" encoding="UTF-8"?>
<svg version="1.1" xmlns="http://www.w3.org/2000/svg" width="103" height="102">
<path d="M0 0 C2 2 2 2 2 5 C-0.0551236 7.2054985 -1.40572077 8.62355927 -4 10 C-8.31630244 9.92684233 -10.40422381 9.39718413 -14 7 C-22.93535366 4.02154878 -33.03791317 3.5376578 -41.9296875 6.93359375 C-45.03279365 8.53198616 -47.69132901 10.56795196 -50.37109375 12.79296875 C-52 14 -52 14 -54 14 C-54.41572266 14.85464844 -54.41572266 14.85464844 -54.83984375 15.7265625 C-55.99955606 17.99913007 -57.26998602 20.17579711 -58.5625 22.375 C-62.98737249 30.40484214 -63.18482042 40.31231949 -61.3125 49.25 C-59.99044751 53.02729283 -58.36533771 55.95515877 -56.12109375 59.23828125 C-55 61 -55 61 -54 64 C-52.68747118 64.70674629 -51.34721283 65.36184656 -50 66 C-48.93218728 66.82651478 -47.87026265 67.66066165 -46.8125 68.5 C-39.89652163 73.47774239 -31.26057075 73.73505079 -23 73 C-15.72180919 71.71878002 -10.52928345 68.82204952 -5 64 C-4.2575 63.38125 -3.515 62.7625 -2.75 62.125 C4.16306016 53.73056981 5.26848523 43.47221146 6 33 C6.66 33 7.32 33 8 33 C8.66 31.68 9.32 30.36 10 29 C10.66 29 11.32 29 12 29 C12.33 28.01 12.66 27.02 13 26 C13.99 26 14.98 26 16 26 C19.04482429 38.78826203 17.48543399 52.61844787 11 64 C10.5875 64.845625 10.175 65.69125 9.75 66.5625 C7.04359365 70.33213742 3.5931344 73.09477051 0 76 C-0.56976563 76.46792969 -1.13953125 76.93585938 -1.7265625 77.41796875 C-9.86511075 83.68580805 -18.29759103 85.69627804 -28.4375 85.5 C-29.45303955 85.48573975 -30.4685791 85.47147949 -31.51489258 85.45678711 C-44.59002739 85.08724268 -53.27192401 80.84500028 -63 72 C-67.54419573 66.70906269 -70.51225029 60.47945719 -73 54 C-73.35835938 53.08734375 -73.71671875 52.1746875 -74.0859375 51.234375 C-77.38959161 39.54452198 -75.29939774 25.91560352 -69.57421875 15.375 C-62.86445562 4.83356336 -53.05478662 -3.43530952 -41 -7 C-26.05190138 -10.10049848 -12.83685046 -8.07514695 0 0 Z " fill="#E4E5E7" transform="translate(80,12)"/>
<path d="M0 0 C-1.4333056 5.01656959 -3.90563952 7.01452882 -8 10 C-8.66 10 -9.32 10 -10 10 C-10.33 10.99 -10.66 11.98 -11 13 C-12.49609375 14.5078125 -12.49609375 14.5078125 -14.4375 16.125 C-17.67276433 18.86831895 -20.85588199 21.65231352 -24 24.5 C-27.7291234 27.86251219 -31.45910049 31.22175791 -35.26953125 34.4921875 C-36.72330571 35.75890746 -38.11939286 37.09140804 -39.5 38.4375 C-43.01900788 40.63687992 -45.96262257 40.92982026 -50 40 C-53.66497103 37.42672247 -54.78315197 35.72707868 -56.0625 31.4375 C-56 28 -56 28 -54.390625 26.0078125 C-51.64300642 23.70017206 -48.86369581 22.10584257 -45.6875 20.4375 C-44.59824219 19.85871094 -43.50898437 19.27992187 -42.38671875 18.68359375 C-38.971884 16.98602307 -35.50515629 15.50056087 -32 14 C-29.43930136 12.76631683 -26.90785054 11.47720113 -24.375 10.1875 C-19.17211291 7.56748994 -13.95679116 4.9841787 -8.6875 2.5 C-7.14642578 1.77296875 -7.14642578 1.77296875 -5.57421875 1.03125 C-3 0 -3 0 0 0 Z " fill="#E4E5E7" transform="translate(94,24)"/>
<path d="M0 0 C-0.66 1.65 -1.32 3.3 -2 5 C-2.33 4.01 -2.66 3.02 -3 2 C-4.65 3.32 -6.3 4.64 -8 6 C-8.99 5.34 -9.98 4.68 -11 4 C-9.73308493 3.32591692 -8.46129251 2.66099503 -7.1875 2 C-6.47980469 1.62875 -5.77210937 1.2575 -5.04296875 0.875 C-3 0 -3 0 0 0 Z " fill="#9EA2A7" transform="translate(94,24)"/>
</svg>
