<?xml version="1.0" encoding="UTF-8"?>
<svg version="1.1" xmlns="http://www.w3.org/2000/svg" width="415" height="111">
<path d="M0 0 C2 2 2 2 2 5 C-0.0551236 7.2054985 -1.40572077 8.62355927 -4 10 C-8.31630244 9.92684233 -10.40422381 9.39718413 -14 7 C-22.93535366 4.02154878 -33.03791317 3.5376578 -41.9296875 6.93359375 C-45.03279365 8.53198616 -47.69132901 10.56795196 -50.37109375 12.79296875 C-52 14 -52 14 -54 14 C-54.41572266 14.85464844 -54.41572266 14.85464844 -54.83984375 15.7265625 C-55.99955606 17.99913007 -57.26998602 20.17579711 -58.5625 22.375 C-62.98737249 30.40484214 -63.18482042 40.31231949 -61.3125 49.25 C-59.99044751 53.02729283 -58.36533771 55.95515877 -56.12109375 59.23828125 C-55 61 -55 61 -54 64 C-52.68747118 64.70674629 -51.34721283 65.36184656 -50 66 C-48.93218728 66.82651478 -47.87026265 67.66066165 -46.8125 68.5 C-39.89652163 73.47774239 -31.26057075 73.73505079 -23 73 C-15.72180919 71.71878002 -10.52928345 68.82204952 -5 64 C-4.2575 63.38125 -3.515 62.7625 -2.75 62.125 C4.16306016 53.73056981 5.26848523 43.47221146 6 33 C6.66 33 7.32 33 8 33 C8.66 31.68 9.32 30.36 10 29 C10.66 29 11.32 29 12 29 C12.33 28.01 12.66 27.02 13 26 C13.99 26 14.98 26 16 26 C19.04482429 38.78826203 17.48543399 52.61844787 11 64 C10.5875 64.845625 10.175 65.69125 9.75 66.5625 C7.04359365 70.33213742 3.5931344 73.09477051 0 76 C-0.56976563 76.46792969 -1.13953125 76.93585938 -1.7265625 77.41796875 C-9.86511075 83.68580805 -18.29759103 85.69627804 -28.4375 85.5 C-29.45303955 85.48573975 -30.4685791 85.47147949 -31.51489258 85.45678711 C-44.59002739 85.08724268 -53.27192401 80.84500028 -63 72 C-67.54419573 66.70906269 -70.51225029 60.47945719 -73 54 C-73.35835937 53.08734375 -73.71671875 52.1746875 -74.0859375 51.234375 C-77.38959161 39.54452198 -75.29939774 25.91560352 -69.57421875 15.375 C-62.86445562 4.83356336 -53.05478662 -3.43530952 -41 -7 C-26.05190138 -10.10049848 -12.83685046 -8.07514695 0 0 Z " fill="#E4E5E7" transform="translate(95,14)"/>
<path d="M0 0 C6.27969119 4.45465594 8.56198007 8.31472776 10.5 15.7734375 C8.08145554 15.90880379 5.67050217 16.00764029 3.25 16.0859375 C2.56808594 16.12783203 1.88617188 16.16972656 1.18359375 16.21289062 C-0.828125 16.26171875 -0.828125 16.26171875 -4.5 15.7734375 C-6.859375 13.31640625 -6.859375 13.31640625 -8.5 10.7734375 C-11.30107012 9.37290244 -13.68891681 9.5658871 -16.8125 9.5234375 C-17.94300781 9.49765625 -19.07351562 9.471875 -20.23828125 9.4453125 C-23.79983623 9.80360067 -25.56946825 10.80246039 -28.5 12.7734375 C-29.16 12.7734375 -29.82 12.7734375 -30.5 12.7734375 C-34.77851456 20.10803389 -35.11220738 27.6100382 -33.5 35.7734375 C-32.09618965 38.73391852 -32.09618965 38.73391852 -30.5 40.7734375 C-30.5 41.4334375 -30.5 42.0934375 -30.5 42.7734375 C-23.4339921 46.73040193 -16.38996833 47.8887757 -8.5 45.7734375 C-5.96794893 43.95471695 -5.11013528 42.5495328 -3.5 39.7734375 C-3.5 38.7834375 -3.5 37.7934375 -3.5 36.7734375 C-8.45 36.4434375 -13.4 36.1134375 -18.5 35.7734375 C-18.5 32.1434375 -18.5 28.5134375 -18.5 24.7734375 C-15.7464504 23.3966627 -13.51159591 23.64374061 -10.43359375 23.640625 C-9.22638672 23.63933594 -8.01917969 23.63804688 -6.77539062 23.63671875 C-4.87563477 23.64251953 -4.87563477 23.64251953 -2.9375 23.6484375 C-1.66712891 23.64457031 -0.39675781 23.64070313 0.91210938 23.63671875 C2.72098633 23.63865234 2.72098633 23.63865234 4.56640625 23.640625 C5.67959229 23.64175293 6.79277832 23.64288086 7.93969727 23.64404297 C10.5 23.7734375 10.5 23.7734375 11.5 24.7734375 C12.42609583 35.82585986 11.18358023 43.43879511 4.25 52.0859375 C0.58137894 56.41745296 -4.25339173 59.22819275 -9.859375 60.16967773 C-12.37906738 60.34501975 -14.84971599 60.38012697 -17.375 60.3359375 C-18.25760498 60.32498047 -19.14020996 60.31402344 -20.04956055 60.30273438 C-28.05342922 60.03645652 -33.60809543 58.40439061 -39.5390625 52.87109375 C-46.63890775 45.25994277 -48.67793102 38.13724189 -48.6875 27.8984375 C-48.69974609 27.21652344 -48.71199219 26.53460938 -48.72460938 25.83203125 C-48.74957775 17.0931004 -46.0310477 11.34415582 -40.5 4.7734375 C-39.7575 3.8659375 -39.015 2.9584375 -38.25 2.0234375 C-27.32881517 -6.91207736 -11.89779244 -6.88649399 0 0 Z " fill="#E5E6E8" transform="translate(177.5,23.2265625)"/>
<path d="M0 0 C5.7426257 3.86748262 9.65101763 10.28738465 11.0625 17.0625 C11.0625 20.0325 11.0625 23.0025 11.0625 26.0625 C0.5025 26.0625 -10.0575 26.0625 -20.9375 26.0625 C-19.9475 27.7125 -18.9575 29.3625 -17.9375 31.0625 C-17.9375 31.7225 -17.9375 32.3825 -17.9375 33.0625 C-11.70963588 34.99251865 -11.70963588 34.99251865 -5.4375 33.8125 C-2.85964602 32.30369467 -2.85964602 32.30369467 -1.9375 30.0625 C2.3525 30.0625 6.6425 30.0625 11.0625 30.0625 C9.91421455 35.80392725 9.91421455 35.80392725 7.9375 38.625 C7.56367188 39.18316406 7.18984375 39.74132812 6.8046875 40.31640625 C2.27923186 44.85200866 -2.23465976 46.57124509 -8.49755859 46.77124023 C-9.26148926 46.76423096 -10.02541992 46.75722168 -10.8125 46.75 C-11.6060791 46.74492432 -12.3996582 46.73984863 -13.21728516 46.73461914 C-19.05249574 46.50382439 -22.8011468 45.2788205 -27.2109375 41.27734375 C-32.02446194 35.10252846 -33.59412802 30.85850847 -33.4375 23.125 C-33.45296875 22.36509766 -33.4684375 21.60519531 -33.484375 20.82226562 C-33.44563517 15.15172264 -32.17318664 10.75649548 -28.9375 6.0625 C-26.68359375 4.00390625 -26.68359375 4.00390625 -24.375 2.625 C-23.61058594 2.15191406 -22.84617187 1.67882813 -22.05859375 1.19140625 C-15.80067279 -2.13923677 -6.71380444 -2.24799295 0 0 Z M-17.9375 12.0625 C-17.9375 12.7225 -17.9375 13.3825 -17.9375 14.0625 C-18.5975 14.0625 -19.2575 14.0625 -19.9375 14.0625 C-19.9375 15.0525 -19.9375 16.0425 -19.9375 17.0625 C-13.9975 17.0625 -8.0575 17.0625 -1.9375 17.0625 C-3.80780423 12.90140307 -3.80780423 12.90140307 -6.9375 10.0625 C-11.39242822 9.45670432 -14.14011822 9.53091215 -17.9375 12.0625 Z " fill="#E7E9EA" transform="translate(382.9375,36.9375)"/>
<path d="M0 0 C3.71916029 3.1086587 5.97908289 6.329134 7.3125 11 C7.79564776 16.84389343 7.69041253 22.64257143 7.5625 28.5 C7.54240783 30.10154021 7.52416185 31.70310471 7.5078125 33.3046875 C7.46402271 37.20373081 7.39514721 41.10159466 7.3125 45 C3.3525 45 -0.6075 45 -4.6875 45 C-5.0175 44.34 -5.3475 43.68 -5.6875 43 C-6.70650391 43.48726562 -6.70650391 43.48726562 -7.74609375 43.984375 C-11.22601135 45.18594017 -14.07389986 45.26572663 -17.75 45.25 C-18.95785156 45.25515625 -20.16570312 45.2603125 -21.41015625 45.265625 C-24.4558189 45.01877749 -26.137395 44.60255975 -28.6875 43 C-28.6875 42.34 -28.6875 41.68 -28.6875 41 C-29.6775 40.67 -30.6675 40.34 -31.6875 40 C-33.88688501 34.61150671 -33.96745058 30.66835255 -32.6875 25 C-30.0419528 20.42116831 -26.62114453 18.53910315 -21.6875 17 C-18.70960085 16.54168061 -15.75920207 16.40275028 -12.75 16.3125 C-11.97076172 16.27833984 -11.19152344 16.24417969 -10.38867188 16.20898438 C-8.48875607 16.1273929 -6.58815597 16.06200115 -4.6875 16 C-5.3475 14.02 -6.0075 12.04 -6.6875 10 C-13.41193848 9.28740158 -13.41193848 9.28740158 -19.1875 12.0625 C-22.25703767 14.44139169 -23.23930244 14.14447876 -27 13.75 C-28.56577686 13.52141944 -30.12978648 13.27827115 -31.6875 13 C-31.17724064 8.61176949 -30.5066066 5.45567906 -27.6875 2 C-20.03329426 -3.44626177 -8.41273376 -4.65620349 0 0 Z M-19.6875 27 C-20.84960219 29.39351495 -20.84960219 29.39351495 -20.6875 32 C-19.73201019 33.95625978 -19.73201019 33.95625978 -17.6875 35 C-13.95363356 35.56819707 -12.20448838 35.30549314 -8.9375 33.375 C-6.39266655 30.68878692 -5.57709814 28.55839258 -4.6875 25 C-12.53654408 24.42922765 -12.53654408 24.42922765 -19.6875 27 Z " fill="#E6E8E9" transform="translate(244.6875,38)"/>
<path d="M0 0 C4.77706664 2.41443932 6.66517918 5.66575941 8.80078125 10.34765625 C9.84777331 14.37879113 9.92976582 18.20833759 9.93359375 22.36328125 C9.93455048 23.01971619 9.9355072 23.67615112 9.93649292 24.35247803 C9.93717005 25.73075456 9.93534848 27.10903437 9.93115234 28.48730469 C9.92576284 30.60488938 9.93113061 32.72226529 9.9375 34.83984375 C9.93683981 36.18099005 9.93555987 37.52213623 9.93359375 38.86328125 C9.93246582 40.08305664 9.93133789 41.30283203 9.93017578 42.55957031 C9.80078125 45.34765625 9.80078125 45.34765625 8.80078125 46.34765625 C6.78113926 46.42009678 4.75911001 46.43142813 2.73828125 46.41015625 C1.08119141 46.39662109 1.08119141 46.39662109 -0.609375 46.3828125 C-1.46402344 46.37121094 -2.31867188 46.35960937 -3.19921875 46.34765625 C-3.21380127 45.45981445 -3.22838379 44.57197266 -3.2434082 43.65722656 C-3.30456409 40.35437663 -3.37873253 37.0523471 -3.46166992 33.75 C-3.49486669 32.32237711 -3.52291506 30.89462462 -3.5456543 29.46679688 C-3.57929888 27.4108981 -3.63161437 25.35618113 -3.6875 23.30078125 C-3.71368408 22.06489258 -3.73986816 20.82900391 -3.7668457 19.55566406 C-4.22278501 16.17280551 -4.79231202 14.72535294 -7.19921875 12.34765625 C-9.47811217 11.86596897 -9.47811217 11.86596897 -11.88671875 12.09765625 C-12.69496094 12.13375 -13.50320313 12.16984375 -14.3359375 12.20703125 C-14.95082031 12.2534375 -15.56570313 12.29984375 -16.19921875 12.34765625 C-20.04306472 18.12348763 -19.51022226 23.71992011 -19.32421875 30.47265625 C-19.28079186 32.62100996 -19.24155622 34.76945354 -19.20703125 36.91796875 C-19.1827002 37.86430176 -19.15836914 38.81063477 -19.13330078 39.78564453 C-19.1941821 42.15189853 -19.51897955 44.09058939 -20.19921875 46.34765625 C-22.17831273 46.37452178 -24.15750846 46.39399 -26.13671875 46.41015625 C-27.23886719 46.42175781 -28.34101563 46.43335938 -29.4765625 46.4453125 C-32.19921875 46.34765625 -32.19921875 46.34765625 -33.19921875 45.34765625 C-33.29974397 43.20893467 -33.33003663 41.06686306 -33.33203125 38.92578125 C-33.33298798 38.26995056 -33.3339447 37.61411987 -33.33493042 36.93841553 C-33.33561318 35.53950913 -33.33375228 34.14059959 -33.32958984 32.74169922 C-33.32434495 30.64803448 -33.32947713 28.55459458 -33.3359375 26.4609375 C-33.33968549 18.05193767 -32.98934961 9.72412322 -32.19921875 1.34765625 C-27.53255208 1.34765625 -22.86588542 1.34765625 -18.19921875 1.34765625 C-17.61785156 1.02539062 -17.03648437 0.703125 -16.4375 0.37109375 C-11.54433266 -1.86627072 -5.09799168 -1.51219291 0 0 Z " fill="#E4E6E7" transform="translate(290.19921875,36.65234375)"/>
<path d="M0 0 C2.12919595 1.19302567 4.12585126 2.42699051 6.0859375 3.87890625 C6.0859375 4.53890625 6.0859375 5.19890625 6.0859375 5.87890625 C6.7459375 5.87890625 7.4059375 5.87890625 8.0859375 5.87890625 C11.0859375 12.62890625 11.0859375 12.62890625 11.0859375 14.87890625 C8.79484153 14.9596629 6.50294483 15.01798356 4.2109375 15.06640625 C2.29667969 15.11861328 2.29667969 15.11861328 0.34375 15.171875 C-0.73132813 15.07519531 -1.80640625 14.97851562 -2.9140625 14.87890625 C-3.5740625 13.88890625 -4.2340625 12.89890625 -4.9140625 11.87890625 C-8.45951336 11.00926736 -11.09125854 10.69190535 -14.6640625 11.50390625 C-17.62539993 13.31361246 -18.58540828 14.66216445 -19.9140625 17.87890625 C-20.44330628 23.43596592 -20.18321109 27.14427726 -16.9140625 31.87890625 C-13.98496999 33.69969349 -12.29563851 33.89448078 -8.8515625 33.75390625 C-5.81768222 33.13334373 -5.81768222 33.13334373 -4.12109375 30.83984375 C-1.19159449 28.23699662 0.48348233 28.4614082 4.3359375 28.62890625 C5.41359375 28.665 6.49125 28.70109375 7.6015625 28.73828125 C8.42140625 28.7846875 9.24125 28.83109375 10.0859375 28.87890625 C10.26606751 32.75443077 10.36113603 35.3318523 8.0234375 38.50390625 C7.44916016 39.32761719 7.44916016 39.32761719 6.86328125 40.16796875 C1.65036931 45.18611256 -3.26966998 46.60658669 -10.2890625 46.50390625 C-11.032771 46.49987793 -11.77647949 46.49584961 -12.54272461 46.49169922 C-18.20455964 46.28509451 -22.0227341 44.92429369 -26.54296875 41.38671875 C-27.9140625 39.87890625 -27.9140625 39.87890625 -27.9140625 37.87890625 C-28.5740625 37.87890625 -29.2340625 37.87890625 -29.9140625 37.87890625 C-33.93701925 29.76115423 -35.81800459 21.93613793 -33.03125 13.0703125 C-30.00888827 6.33504943 -26.16158742 2.90876085 -19.6171875 -0.21875 C-13.47547481 -2.268946 -6.04847146 -2.32695886 0 0 Z " fill="#E4E6E7" transform="translate(336.9140625,37.12109375)"/>
<path d="M0 0 C3.96 0 7.92 0 12 0 C12 21.12 12 42.24 12 64 C8.04 64 4.08 64 0 64 C-0.89427806 60.42288776 -1.12659761 57.78863219 -1.12939453 54.14575195 C-1.13254669 52.9680574 -1.13569885 51.79036285 -1.13894653 50.57698059 C-1.1369223 49.31020981 -1.13489807 48.04343903 -1.1328125 46.73828125 C-1.13376923 45.43674606 -1.13472595 44.13521088 -1.13571167 42.79423523 C-1.13718362 40.04469614 -1.1350492 37.2951896 -1.13037109 34.5456543 C-1.12465722 31.01468236 -1.12796641 27.48378616 -1.13394356 23.95281696 C-1.13841451 20.58963222 -1.13529016 17.22646815 -1.1328125 13.86328125 C-1.13483673 12.59043777 -1.13686096 11.3175943 -1.13894653 10.00617981 C-1.13579437 8.83794174 -1.13264221 7.66970367 -1.12939453 6.46606445 C-1.12859894 5.43222122 -1.12780334 4.39837799 -1.12698364 3.33320618 C-1 1 -1 1 0 0 Z " fill="#E7E7E9" transform="translate(194,19)"/>
<path d="M0 0 C-1.4333056 5.01656959 -3.90563952 7.01452882 -8 10 C-8.66 10 -9.32 10 -10 10 C-10.33 10.99 -10.66 11.98 -11 13 C-12.49609375 14.5078125 -12.49609375 14.5078125 -14.4375 16.125 C-17.67276433 18.86831895 -20.85588199 21.65231352 -24 24.5 C-27.7291234 27.86251219 -31.45910049 31.22175791 -35.26953125 34.4921875 C-36.72330571 35.75890746 -38.11939286 37.09140804 -39.5 38.4375 C-43.01900788 40.63687992 -45.96262257 40.92982026 -50 40 C-53.66497103 37.42672247 -54.78315197 35.72707868 -56.0625 31.4375 C-56 28 -56 28 -54.390625 26.0078125 C-51.64300642 23.70017206 -48.86369581 22.10584257 -45.6875 20.4375 C-44.59824219 19.85871094 -43.50898437 19.27992187 -42.38671875 18.68359375 C-38.971884 16.98602307 -35.50515629 15.50056087 -32 14 C-29.43930136 12.76631683 -26.90785054 11.47720113 -24.375 10.1875 C-19.17211291 7.56748994 -13.95679116 4.9841787 -8.6875 2.5 C-7.14642578 1.77296875 -7.14642578 1.77296875 -5.57421875 1.03125 C-3 0 -3 0 0 0 Z " fill="#E4E5E7" transform="translate(109,26)"/>
<path d="M0 0 C1.07765625 0.01804688 2.1553125 0.03609375 3.265625 0.0546875 C4.49539063 0.08949219 4.49539063 0.08949219 5.75 0.125 C5.75 0.455 5.75 0.785 5.75 1.125 C2.12 1.125 -1.51 1.125 -5.25 1.125 C-5.25 1.785 -5.25 2.445 -5.25 3.125 C-5.91 3.125 -6.57 3.125 -7.25 3.125 C-7.58 4.115 -7.91 5.105 -8.25 6.125 C-11.3125 7.3125 -11.3125 7.3125 -14.25 8.125 C-13.92 6.475 -13.59 4.825 -13.25 3.125 C-16.88 3.125 -20.51 3.125 -24.25 3.125 C-24.25 2.795 -24.25 2.465 -24.25 2.125 C-19.58333333 2.125 -14.91666667 2.125 -10.25 2.125 C-9.67765625 1.79757813 -9.1053125 1.47015625 -8.515625 1.1328125 C-5.56312619 -0.18054042 -3.21696754 -0.06993408 0 0 Z " fill="#A7ABB0" transform="translate(282.25,35.875)"/>
<path d="M0 0 C-0.66 1.65 -1.32 3.3 -2 5 C-2.33 4.01 -2.66 3.02 -3 2 C-4.65 3.32 -6.3 4.64 -8 6 C-8.99 5.34 -9.98 4.68 -11 4 C-9.73308493 3.32591692 -8.46129251 2.66099503 -7.1875 2 C-6.47980469 1.62875 -5.77210937 1.2575 -5.04296875 0.875 C-3 0 -3 0 0 0 Z " fill="#9EA2A7" transform="translate(109,26)"/>
<path d="M0 0 C0.66 0.33 1.32 0.66 2 1 C1.21654285 2.17219543 0.42297164 3.33763668 -0.375 4.5 C-0.81585938 5.1496875 -1.25671875 5.799375 -1.7109375 6.46875 C-2.13632813 6.9740625 -2.56171875 7.479375 -3 8 C-3.66 8 -4.32 8 -5 8 C-3.375 2.25 -3.375 2.25 0 0 Z " fill="#ABAFB9" transform="translate(219,39)"/>
<path d="" fill="#000000" transform="translate(0,0)"/>
</svg>
