<?xml version="1.0" encoding="UTF-8"?>
<svg version="1.1" xmlns="http://www.w3.org/2000/svg" width="2012" height="824">
<path d="M0 0 C663.96 0 1327.92 0 2012 0 C2012 271.92 2012 543.84 2012 824 C1348.04 824 684.08 824 0 824 C0 552.08 0 280.16 0 0 Z " fill="#081026" transform="translate(0,0)"/>
<path d="M0 0 C1.03330948 -0.00961258 2.06661896 -0.01922516 3.13124084 -0.02912903 C6.46513164 -0.05380484 9.79884105 -0.06638333 13.1328125 -0.07421875 C14.26252472 -0.07750183 15.39223694 -0.08078491 16.55618286 -0.08416748 C31.94635737 -0.09869699 46.77819691 0.27040554 61.84716797 3.70996094 C64.49496934 4.29025688 67.15078518 4.73701986 69.82421875 5.18359375 C74.84094463 6.08153255 79.47143273 7.51807635 84.2578125 9.23828125 C85.7854367 9.74398207 87.31410884 10.246527 88.84375 10.74609375 C111.40931995 18.29607825 132.28049481 28.82585541 151.2578125 43.23828125 C153.31740318 44.74227344 155.37986575 46.24234142 157.4453125 47.73828125 C159.04947917 48.90494792 160.65364583 50.07161458 162.2578125 51.23828125 C161.92709938 54.0836621 161.45922497 55.06620069 159.24609375 56.95703125 C157.92158203 57.83875 157.92158203 57.83875 156.5703125 58.73828125 C151.94332111 61.9687843 147.5943858 65.36643906 143.3203125 69.05078125 C142.73435303 69.55375732 142.14839355 70.0567334 141.54467773 70.57495117 C138.57631591 73.14731369 135.67452528 75.76908372 132.83984375 78.48828125 C132.02858032 79.26014771 132.02858032 79.26014771 131.20092773 80.04760742 C129.71644706 81.4706103 128.248321 82.91061742 126.78125 84.3515625 C124.2578125 86.23828125 124.2578125 86.23828125 122.36328125 86.00439453 C120.06709288 85.16888443 118.13920719 84.13004435 116.046875 82.8671875 C115.22541992 82.38000244 114.40396484 81.89281738 113.55761719 81.39086914 C112.67493164 80.86614014 111.79224609 80.34141113 110.8828125 79.80078125 C94.73324602 70.41493711 78.35576956 62.91374917 60.2578125 58.23828125 C59.11183594 57.89925781 57.96585937 57.56023437 56.78515625 57.2109375 C52.96338706 56.15709417 49.1554809 55.38139363 45.2578125 54.67578125 C44.58492188 54.55009766 43.91203125 54.42441406 43.21875 54.29492188 C41.23424007 53.9290518 39.2460263 53.58345726 37.2578125 53.23828125 C36.22398437 53.04621094 35.19015625 52.85414063 34.125 52.65625 C28.21426841 52.01741335 22.32332411 52.09156997 16.3828125 52.11328125 C15.09536133 52.11593994 13.80791016 52.11859863 12.48144531 52.12133789 C-2.87946216 50.98239451 -2.87946216 50.98239451 -16.7421875 54.23828125 C-18.36172026 54.52154553 -19.98861576 54.7627173 -21.6171875 54.98828125 C-34.54695702 57.07372795 -47.02049558 60.35338257 -58.7421875 66.23828125 C-60.05630318 66.83579269 -61.37292821 67.42780224 -62.69140625 68.015625 C-72.29877312 72.33180456 -81.09708995 77.2261031 -89.7421875 83.23828125 C-90.73476562 83.9240625 -91.72734375 84.60984375 -92.75 85.31640625 C-123.34298628 107.34335637 -144.53874795 138.21090165 -157.1796875 173.42578125 C-157.42662354 174.10793701 -157.67355957 174.79009277 -157.92797852 175.49291992 C-159.39641823 179.72665081 -160.16204582 183.8055482 -160.7421875 188.23828125 C-161.0721875 188.56828125 -161.4021875 188.89828125 -161.7421875 189.23828125 C-162.02573838 190.55378662 -162.2558544 191.88093886 -162.4609375 193.2109375 C-162.58855469 194.02884766 -162.71617187 194.84675781 -162.84765625 195.68945312 C-162.97785156 196.55119141 -163.10804688 197.41292969 -163.2421875 198.30078125 C-163.37238281 199.13544922 -163.50257813 199.97011719 -163.63671875 200.83007812 C-164.01761002 203.29817659 -164.39231224 205.76556987 -164.7421875 208.23828125 C-164.91927246 209.48681885 -165.09635742 210.73535645 -165.27880859 212.02172852 C-165.79640742 216.22698859 -165.88693365 220.37246764 -165.875 224.60546875 C-165.87595673 225.3662674 -165.87691345 226.12706604 -165.87789917 226.91091919 C-165.87857425 228.5024626 -165.8767673 230.09400888 -165.87255859 231.68554688 C-165.86715568 234.12766599 -165.87254913 236.56960493 -165.87890625 239.01171875 C-165.87824622 240.56380249 -165.87696663 242.11588612 -165.875 243.66796875 C-165.87702423 244.39813202 -165.87904846 245.12829529 -165.88113403 245.88058472 C-165.92721918 249.6856108 -165.92721918 249.6856108 -164.7421875 253.23828125 C-164.54870312 255.00487777 -164.35981965 256.77214763 -164.19873047 258.54199219 C-160.61449937 296.65516354 -140.86218427 332.65952027 -114.32617188 359.61914062 C-112.92723233 361.04912939 -111.55878213 362.50880848 -110.1953125 363.97265625 C-88.85462966 386.45914756 -58.73305353 401.46078905 -28.57568359 407.46899414 C-26.10921244 407.96395342 -23.64693622 408.48056616 -21.19067383 409.02392578 C-11.58050641 411.0393958 -2.41428243 411.67902277 7.39404297 411.57446289 C9.75653274 411.55079407 12.11788932 411.55394476 14.48046875 411.56054688 C26.96580971 411.538335 39.23220471 410.85547071 51.2578125 407.23828125 C53.75686391 406.65089737 56.25691562 406.06775736 58.7578125 405.48828125 C66.91612932 403.49821675 74.58066942 400.61537993 82.2578125 397.23828125 C82.9398877 396.944375 83.62196289 396.65046875 84.32470703 396.34765625 C95.08055541 391.68044371 104.7577393 386.10288835 114.2578125 379.23828125 C115.08667969 378.64273437 115.91554688 378.0471875 116.76953125 377.43359375 C122.78760342 372.91733851 128.29939682 367.8106675 133.76123047 362.64697266 C135.16603325 361.32467053 136.58831756 360.02101066 138.01171875 358.71875 C152.35727844 345.1249227 162.74013675 327.92348266 171.2578125 310.23828125 C171.89009766 308.98144531 171.89009766 308.98144531 172.53515625 307.69921875 C178.21370193 295.97928102 181.7855165 283.25220281 184.5078125 270.55078125 C184.65871338 269.85275391 184.80961426 269.15472656 184.96508789 268.43554688 C187.88737497 253.96075925 188.49796791 240.03123053 188.06591797 225.33837891 C188.00540954 223.1252949 187.97001614 220.9128658 187.9375 218.69921875 C187.88698486 216.76248291 187.88698486 216.76248291 187.83544922 214.78662109 C188.67599562 207.7250596 193.87249956 203.33405852 198.7109375 198.5546875 C199.32998962 197.9360936 199.94904175 197.31749969 200.58685303 196.68016052 C201.89228378 195.37773744 203.20013065 194.07773203 204.51025391 192.7800293 C206.49304822 190.8154102 208.46780392 188.8429891 210.44140625 186.86914062 C228.11889703 169.23828125 228.11889703 169.23828125 231.2578125 169.23828125 C237.91096378 187.29683473 237.58185331 207.02494824 237.51855469 225.97436523 C237.5078253 229.79622222 237.5185048 233.61761029 237.53125 237.43945312 C237.54046134 253.04855214 236.97199097 267.52817091 232.91015625 282.6640625 C232.16492811 285.40089987 232.16492811 285.40089987 231.7578125 288.92578125 C231.2420742 292.34254746 230.33860278 295.29839156 229.1953125 298.546875 C228.49776904 300.54940601 227.83680815 302.56475452 227.1953125 304.5859375 C224.35411031 313.47404042 220.92701856 321.9478614 217.0612793 330.43774414 C216.29406771 332.15703476 215.57730279 333.89857245 214.86328125 335.640625 C212.90367476 340.03185999 210.60945253 344.1460281 208.1953125 348.30078125 C207.71215576 349.13279053 207.22899902 349.9647998 206.73120117 350.82202148 C202.32864584 358.29652783 197.50044956 365.33313009 192.2578125 372.23828125 C191.59265625 373.11613281 190.9275 373.99398438 190.2421875 374.8984375 C179.14319442 389.13312171 166.38372797 402.03144947 152.2578125 413.23828125 C151.46890625 413.89441406 150.68 414.55054688 149.8671875 415.2265625 C132.43707894 429.62660252 112.4492912 440.4748159 91.2578125 448.23828125 C89.85402344 448.78548828 89.85402344 448.78548828 88.421875 449.34375 C64.82738912 458.37331131 40.37467715 460.62166411 15.3203125 460.55078125 C14.42977173 460.54832397 13.53923096 460.5458667 12.6217041 460.54333496 C2.73394315 460.49456391 -7.14143148 460.23476479 -17.01953125 459.796875 C-18.29146584 459.74301384 -18.29146584 459.74301384 -19.58909607 459.68806458 C-60.84423522 457.67445046 -102.75067113 437.84855647 -133.7421875 411.23828125 C-134.5053125 410.58730469 -135.2684375 409.93632813 -136.0546875 409.265625 C-149.19407709 397.7464642 -161.43214805 385.36162296 -171.7421875 371.23828125 C-172.37125 370.39265625 -173.0003125 369.54703125 -173.6484375 368.67578125 C-189.75100837 346.42495604 -200.44604022 321.28432503 -208.7421875 295.23828125 C-209.06711182 294.33078125 -209.39203613 293.42328125 -209.72680664 292.48828125 C-210.81097997 289.01809242 -211.43492328 285.66561587 -211.99609375 282.07421875 C-212.10187241 281.40089508 -212.20765106 280.72757141 -212.31663513 280.03384399 C-212.53839752 278.61393687 -212.75759958 277.19362774 -212.97436523 275.77294922 C-213.30073307 273.63913555 -213.6370203 271.50706367 -213.97460938 269.375 C-218.37283189 241.23104943 -218.40765527 212.23472688 -212.7421875 184.23828125 C-212.4121875 183.90828125 -212.0821875 183.57828125 -211.7421875 183.23828125 C-211.34447423 180.97131562 -210.97533432 178.69933351 -210.6171875 176.42578125 C-204.68442843 142.69708904 -185.76742325 109.0554074 -163.7421875 83.23828125 C-162.30413005 81.42622351 -160.86664232 79.6137135 -159.4296875 77.80078125 C-151.22250951 67.79516078 -141.9373062 59.1913199 -131.7421875 51.23828125 C-130.75863281 50.449375 -129.77507812 49.66046875 -128.76171875 48.84765625 C-107.68426116 32.08519037 -81.79763491 15.91864668 -55.26171875 9.90625 C-53.05947332 9.32239889 -51.07735339 8.60005316 -48.96484375 7.76171875 C-44.81916597 6.17528085 -40.74096934 5.35921593 -36.3671875 4.67578125 C-34.87224729 4.42797778 -33.3774544 4.17928389 -31.8828125 3.9296875 C-31.17060547 3.81254395 -30.45839844 3.69540039 -29.72460938 3.57470703 C-26.47089527 3.02253732 -23.24371397 2.3519876 -20.015625 1.66796875 C-13.29319456 0.3974063 -6.83434025 0.05279941 0 0 Z " fill="#FDFDFD" transform="translate(277.7421875,173.76171875)"/>
<path d="M0 0 C1.23621094 0.43054688 2.47242188 0.86109375 3.74609375 1.3046875 C38.48672594 14.31863861 63.95368617 38.88136955 80 72 C80.4125 72.82371094 80.825 73.64742188 81.25 74.49609375 C82.3137418 78.04744009 82.04519409 81.29432034 82 85 C74.05491295 85.27894884 66.11189268 85.49168412 58.16310883 85.62174606 C54.47122957 85.68419786 50.78271521 85.76875318 47.09277344 85.90527344 C43.52628556 86.03638909 39.96301515 86.10754357 36.39430237 86.13852692 C34.38153663 86.17126048 32.37005535 86.2648426 30.35925293 86.35955811 C26.55242079 86.36233916 23.60909264 86.22415907 20 85 C16.46849512 81.39956031 14.34472321 77.425256 12 73 C1.60857134 59.10832412 -14.91602492 51.43671238 -31.71826172 48.44311523 C-37.81825378 47.61946655 -43.91540721 47.61671703 -50.0625 47.625 C-51.08571854 47.62581573 -51.08571854 47.62581573 -52.12960815 47.62664795 C-77.99988408 47.72131239 -100.23218412 55.62605003 -119.11328125 73.95703125 C-138.24775856 93.50121299 -145.44547224 119.21321658 -145.375 145.9375 C-145.37445618 146.71179352 -145.37391235 147.48608704 -145.37335205 148.28384399 C-145.33374572 160.55531139 -144.59954859 172.1890674 -141 184 C-140.79101074 184.7002832 -140.58202148 185.40056641 -140.36669922 186.12207031 C-132.76524274 210.66310209 -116.25218232 231.01613511 -93.625 243.1796875 C-71.88400363 254.36375775 -46.4739274 255.72143561 -23 250 C-22.19820312 249.80664062 -21.39640625 249.61328125 -20.5703125 249.4140625 C-2.29161062 244.10289252 12.15758493 233.09920523 21.4296875 216.4296875 C25.17166261 209.1892978 27.78391303 202.1880964 29.5859375 194.23828125 C29.85196777 193.06950439 30.11799805 191.90072754 30.39208984 190.6965332 C30.5927002 189.80667725 30.79331055 188.91682129 31 188 C29.98744644 188.00222061 28.97489288 188.00444122 27.93165588 188.00672913 C18.4106235 188.02696054 8.88959545 188.04197214 -0.63145351 188.05181217 C-5.52685374 188.057041 -10.42223668 188.06413864 -15.31762695 188.07543945 C-20.03787978 188.08626834 -24.75811592 188.09227684 -29.4783802 188.09487724 C-31.28338954 188.09673149 -33.08839792 188.10035209 -34.89340019 188.10573006 C-37.41259644 188.11294052 -39.9317229 188.11399094 -42.45092773 188.11352539 C-43.58164955 188.1189183 -43.58164955 188.1189183 -44.73521423 188.12442017 C-49.88594784 188.11405216 -49.88594784 188.11405216 -51 187 C-51 170.5 -51 154 -51 137 C-4.47 137 42.06 137 90 137 C90 184 90 184 89 186 C88.70367781 187.91289178 88.43796284 189.83056514 88.1875 191.75 C87.09386087 199.05969093 85.23649138 205.96323444 83 213 C82.64035156 214.13308594 82.28070312 215.26617187 81.91015625 216.43359375 C70.50114975 250.27647161 46.73199577 278.19767124 14.8125 294.375 C4.09472958 299.56953399 -6.34800461 303.36311918 -18.078125 305.421875 C-20.88019774 305.69472739 -20.88019774 305.69472739 -22 307 C-63.6008524 313.13378209 -108.01046969 307.68844966 -142.46875 282.171875 C-169.16866373 261.38649912 -186.88714665 236.92290995 -198 205 C-198.35191406 204.03835938 -198.70382812 203.07671875 -199.06640625 202.0859375 C-200.24756554 198.18168711 -200.91066756 194.27135779 -201.5625 190.25 C-202.26849178 184.9727488 -202.26849178 184.9727488 -204 180 C-206.20045273 169.43140222 -206.21745761 158.68396251 -206.25 147.9375 C-206.25508575 147.26434753 -206.26017151 146.59119507 -206.26541138 145.89764404 C-206.35242414 131.53814009 -204.63445891 117.90299565 -201 104 C-200.84192871 103.36900391 -200.68385742 102.73800781 -200.52099609 102.08789062 C-191.21970858 65.38213856 -166.48566495 32.28108732 -133.97900391 12.78808594 C-124.07794199 7.07798652 -113.86314741 2.53476741 -103 -1 C-101.83597656 -1.37898437 -100.67195312 -1.75796875 -99.47265625 -2.1484375 C-67.75405636 -11.47125249 -31.19316302 -11.03721638 0 0 Z " fill="#FDFDFD" transform="translate(811,247)"/>
<path d="M0 0 C0.74928772 -0.00983917 1.49857544 -0.01967834 2.27056885 -0.02981567 C33.77783672 -0.35792321 33.77783672 -0.35792321 46.66015625 4.23828125 C47.38138672 4.49029297 48.10261719 4.74230469 48.84570312 5.00195312 C62.78394088 10.00819356 73.92163732 16.98461184 84.66015625 27.23828125 C85.34851562 27.84027344 86.036875 28.44226563 86.74609375 29.0625 C99.1380448 40.35240007 105.80404963 57.6083939 110.66015625 73.23828125 C111.03140625 74.39328125 111.40265625 75.54828125 111.78515625 76.73828125 C116.35460499 95.0160762 114.66015625 108.82413294 114.66015625 129.23828125 C62.52015625 129.23828125 10.38015625 129.23828125 -43.33984375 129.23828125 C-39.09386132 147.63753843 -32.77506521 165.61666061 -16.15625 176.28125 C-6.02423442 181.96220671 2.19321339 183.58626065 13.66015625 183.55078125 C15.2225 183.57495117 15.2225 183.57495117 16.81640625 183.59960938 C23.19349983 183.60363532 27.84596157 182.86238681 33.66015625 180.23828125 C34.8821875 179.76455078 34.8821875 179.76455078 36.12890625 179.28125 C46.08057515 175.09006637 53.92652553 168.4294299 59.52734375 159.14208984 C61.34677426 156.9807561 62.32634408 156.30996884 65.11885071 155.71026611 C68.26977423 155.54286095 71.36921189 155.56447356 74.5234375 155.65234375 C75.6705571 155.66083344 76.8176767 155.66932312 77.9995575 155.67807007 C81.65821817 155.71161819 85.31466336 155.78690795 88.97265625 155.86328125 C91.45504627 155.89337867 93.93747087 155.92075485 96.41992188 155.9453125 C102.50075406 156.01141442 108.58029688 156.11177986 114.66015625 156.23828125 C114.926453 172.40301591 105.27553852 188.58306244 94.38598633 200.17016602 C72.8374297 222.05417294 44.38270504 231.21896289 14.11376953 231.48925781 C-17.75637672 231.48056082 -43.21325928 223.50267133 -66.27734375 200.73828125 C-66.98761719 200.03840088 -67.69789062 199.33852051 -68.4296875 198.61743164 C-73.1012933 193.86564321 -76.83163824 188.89372144 -80.33984375 183.23828125 C-80.96890625 182.26761719 -81.59796875 181.29695312 -82.24609375 180.296875 C-93.78935265 161.31274088 -98.06441101 140.51252436 -97.86132812 118.49755859 C-97.83985453 115.73966629 -97.86127855 112.9843775 -97.88671875 110.2265625 C-97.91079063 95.32540691 -95.85684817 81.01518015 -90.21484375 67.11328125 C-89.92335449 66.38302734 -89.63186523 65.65277344 -89.33154297 64.90039062 C-84.16902161 52.53168311 -76.75423899 41.74956563 -67.33984375 32.23828125 C-66.53675781 31.38621094 -65.73367188 30.53414063 -64.90625 29.65625 C-52.68753986 16.94192915 -37.67849395 8.5702064 -20.71875 3.9296875 C-18.40546514 3.46445661 -18.40546514 3.46445661 -17.33984375 2.23828125 C-15.02167286 1.91730374 -12.70205018 1.72607169 -10.37109375 1.51953125 C-6.86489611 1.03405773 -3.90453215 0.04082923 0 0 Z " fill="#FDFDFD" transform="translate(1812.33984375,323.76171875)"/>
<path d="M0 0 C0.73942841 -0.00979385 1.47885681 -0.01958771 2.24069214 -0.02967834 C32.33442744 -0.34683468 32.33442744 -0.34683468 45.9765625 4.23828125 C46.67072266 4.46322266 47.36488281 4.68816406 48.08007812 4.91992188 C56.60774864 7.71625828 64.57280444 11.09065962 71.9765625 16.23828125 C73.12705078 17.02138672 73.12705078 17.02138672 74.30078125 17.8203125 C85.48912547 25.93138717 91.44816354 36.90964388 96.9765625 49.23828125 C97.33878906 50.04007812 97.70101563 50.841875 98.07421875 51.66796875 C102.71809375 63.66270115 102.27250914 78.40844649 102.20361328 91.02954102 C102.20304694 92.51971428 102.20337005 94.00988809 102.20449829 95.50006104 C102.20506413 99.48451535 102.19343679 103.46884533 102.17935038 107.45327115 C102.16671252 111.63989686 102.16566236 115.82652649 102.16329956 120.01316833 C102.15712268 127.91393151 102.14076409 135.81463828 102.12060058 143.71537679 C102.0981224 152.72163765 102.0872184 161.72790143 102.07720971 170.73418343 C102.05639378 189.23558115 102.02129287 207.73692664 101.9765625 226.23828125 C94.73169699 226.26354864 87.48684276 226.28111305 80.24194336 226.29321289 C77.77514217 226.29825481 75.30834398 226.30508816 72.84155273 226.3137207 C69.30451721 226.3257925 65.76752105 226.33151081 62.23046875 226.3359375 C61.12006729 226.34109879 60.00966583 226.34626007 58.86561584 226.35157776 C57.33414162 226.35169106 57.33414162 226.35169106 55.77172852 226.35180664 C54.41604515 226.35513756 54.41604515 226.35513756 53.03297424 226.35853577 C50.9765625 226.23828125 50.9765625 226.23828125 49.9765625 225.23828125 C49.81869942 223.38653419 49.72548894 221.52919015 49.66015625 219.671875 C49.59731445 217.98481445 49.59731445 217.98481445 49.53320312 216.26367188 C49.49388672 215.07966797 49.45457031 213.89566406 49.4140625 212.67578125 C49.37087891 211.48791016 49.32769531 210.30003906 49.28320312 209.07617188 C49.17672704 206.13033341 49.07471409 203.18440695 48.9765625 200.23828125 C48.25690308 201.23553223 48.25690308 201.23553223 47.52270508 202.25292969 C36.07217685 217.84280532 18.56907149 227.20585719 -0.2890625 230.65234375 C-25.96400556 233.38156998 -49.19979834 230.212767 -70.7890625 215.33203125 C-79.75750576 207.93149765 -86.57192627 197.29027057 -90.0234375 186.23828125 C-90.3627832 185.18092773 -90.70212891 184.12357422 -91.05175781 183.03417969 C-92.50235702 177.36736652 -92.3574892 171.76736792 -92.33911133 165.95996094 C-92.33595542 163.87511665 -92.35944476 161.79170039 -92.38476562 159.70703125 C-92.41950992 152.3672711 -92.01057461 146.0044187 -89.0234375 139.23828125 C-88.71921875 138.41457031 -88.415 137.59085938 -88.1015625 136.7421875 C-80.96041522 120.00091298 -68.46818063 110.05251014 -52.0234375 103.23828125 C-45.48548716 100.69683626 -38.9409099 99.31548615 -32.0234375 98.23828125 C-30.97196533 98.07094482 -29.92049316 97.9036084 -28.8371582 97.73120117 C-17.88487818 96.07458693 -6.87692123 95.09585188 4.15820312 94.18945312 C5.19239632 94.10355171 5.19239632 94.10355171 6.2474823 94.01591492 C8.12796851 93.86127633 10.00891856 93.7123082 11.88989258 93.5637207 C14.38482362 93.30067055 16.56704472 92.87587285 18.9765625 92.23828125 C22.36235401 91.78898365 25.76374432 91.49478261 29.1640625 91.17578125 C30.5262793 91.03946289 30.5262793 91.03946289 31.91601562 90.90039062 C37.63159002 90.35624503 43.23549139 90.15031795 48.9765625 90.23828125 C48.41561461 75.73100816 46.82873779 64.09045654 36.1640625 53.42578125 C23.42946088 44.68634877 6.57816421 44.07891397 -8.34863281 46.63671875 C-16.41960171 48.72369231 -23.38923267 52.85814997 -27.703125 60.03125 C-28.75879853 61.98348836 -29.7810182 63.95435603 -30.76171875 65.9453125 C-32.0234375 68.23828125 -32.0234375 68.23828125 -34.0234375 69.23828125 C-36.47452498 69.33733397 -38.89641213 69.37810004 -41.34765625 69.37109375 C-42.45534111 69.37252884 -42.45534111 69.37252884 -43.58540344 69.37399292 C-45.15825485 69.37467485 -46.73110905 69.37281967 -48.30395508 69.36865234 C-50.6564816 69.36340277 -53.00880837 69.36854454 -55.36132812 69.375 C-64.9583808 69.37880187 -74.4564332 69.01582728 -84.0234375 68.23828125 C-84.29775385 62.46487899 -83.66053416 58.13949735 -81.3359375 52.80078125 C-81.06120605 52.14827393 -80.78647461 51.4957666 -80.50341797 50.82348633 C-71.33615045 29.42877194 -56.03783472 15.75307394 -34.9609375 6.42578125 C-23.76883684 1.98779207 -11.99379046 0.13190488 0 0 Z " fill="#FDFDFD" transform="translate(1113.0234375,323.76171875)"/>
<path d="M0 0 C2.13683672 0.01858334 4.2732461 0.02050683 6.41015625 0.02026367 C16.83252813 0.05786993 16.83252813 0.05786993 17.98046875 1.20581055 C19.45221554 1.53286539 20.93361247 1.81682207 22.41796875 2.08081055 C41.0590499 5.75093842 57.1591559 14.54899711 67.91796875 30.58081055 C79.45610353 50.48694902 83.32072866 71.60866829 83.22338867 94.29516602 C83.2244653 95.73416225 83.2264096 97.17315805 83.22914124 98.6121521 C83.23392591 102.46662418 83.22641954 106.32097779 83.21618819 110.17543554 C83.20732147 114.22414328 83.20916666 118.27284825 83.20954895 122.32156372 C83.20861745 129.10119584 83.19999551 135.88078271 83.1862793 142.66040039 C83.17047026 150.503595 83.16528451 158.34674048 83.16601485 166.18994987 C83.16668874 174.5570571 83.15976687 182.92414537 83.15056825 191.29124689 C83.148435 193.70081688 83.14772687 196.11038383 83.14732933 198.51995468 C83.14632876 202.29081916 83.14025582 206.06164206 83.13016319 209.83249283 C83.12723176 211.2188822 83.12601412 212.60527635 83.12659073 213.9916687 C83.12707805 215.87570638 83.12083239 217.75974231 83.11418152 219.64376831 C83.11250567 220.70001844 83.11082983 221.75626858 83.1091032 222.84452629 C82.98046875 225.20581055 82.98046875 225.20581055 81.98046875 226.20581055 C80.2979164 226.30456224 78.61122847 226.33379959 76.92578125 226.33520508 C75.30905518 226.33993332 75.30905518 226.33993332 73.65966797 226.34475708 C72.48678223 226.34273285 71.31389648 226.34070862 70.10546875 226.33862305 C68.91066895 226.33957977 67.71586914 226.3405365 66.48486328 226.34152222 C63.95279895 226.34220426 61.42073287 226.34034832 58.88867188 226.33618164 C54.99735615 226.33083376 51.10615586 226.33612587 47.21484375 226.3425293 C44.76171849 226.34186852 42.30859331 226.34058737 39.85546875 226.33862305 C38.68258301 226.34064728 37.50969727 226.34267151 36.30126953 226.34475708 C35.22345215 226.34160492 34.14563477 226.33845276 33.03515625 226.33520508 C32.08108887 226.33440948 31.12702148 226.33361389 30.14404297 226.33279419 C27.98046875 226.20581055 27.98046875 226.20581055 26.98046875 225.20581055 C26.87626348 223.42931985 26.84248439 221.64867203 26.83570862 219.86914062 C26.82536087 218.13223717 26.82536087 218.13223717 26.81480408 216.36024475 C26.81088402 214.43721779 26.81088402 214.43721779 26.80688477 212.4753418 C26.80058265 211.12035406 26.79381723 209.76536841 26.78662109 208.41038513 C26.77192103 205.48457267 26.76020812 202.55876837 26.75067329 199.63293457 C26.73524073 195.00126383 26.71128814 190.36966187 26.68577576 185.73803711 C26.61453185 172.56441601 26.5549337 159.39075439 26.50366211 146.21704102 C26.47529223 138.94715383 26.43986835 131.67733394 26.39700836 124.40751743 C26.37032536 119.80958943 26.35236447 115.21173762 26.34097111 110.6137476 C26.33179629 107.74087878 26.31441065 104.86810163 26.29479218 101.99528694 C26.2838433 100.04208536 26.28257106 98.08883691 26.28166199 96.13560486 C26.18085939 83.8910147 24.18310388 72.37615003 15.90234375 62.8034668 C11.13503291 58.32786204 6.16779051 55.29584231 -0.01953125 53.20581055 C-1.05207031 52.84874023 -2.08460937 52.49166992 -3.1484375 52.1237793 C-7.95116785 50.98488764 -12.4153497 50.87566273 -17.33203125 50.89331055 C-18.66137695 50.86914062 -18.66137695 50.86914062 -20.01757812 50.84448242 C-31.97392217 50.83576153 -40.89480883 54.77707931 -49.76953125 62.64331055 C-59.93595804 74.22174106 -62.31273203 85.78391209 -62.33837891 100.8737793 C-62.34769081 102.24440595 -62.35786133 103.615027 -62.36882019 104.98564148 C-62.39599221 108.68545114 -62.41123136 112.385223 -62.42424822 116.0851059 C-62.43993512 119.95953174 -62.46670746 123.83388102 -62.49227905 127.70825195 C-62.53896879 135.03552024 -62.57576019 142.36280308 -62.60895193 149.69014359 C-62.64724281 158.03604605 -62.69663461 166.38187144 -62.74693608 174.72770882 C-62.85011002 191.88702021 -62.93941745 209.04637631 -63.01953125 226.20581055 C-70.83405877 226.23107618 -78.64857583 226.2486416 -86.46313477 226.26074219 C-89.12394606 226.26578438 -91.78475457 226.27261791 -94.44555664 226.28125 C-98.26058641 226.29332063 -102.07557969 226.29903984 -105.890625 226.3034668 C-107.68746986 226.31120872 -107.68746986 226.31120872 -109.52061462 226.31910706 C-111.17221336 226.31922035 -111.17221336 226.31922035 -112.85717773 226.31933594 C-114.31945045 226.32266685 -114.31945045 226.32266685 -115.81126404 226.32606506 C-118.01953125 226.20581055 -118.01953125 226.20581055 -119.01953125 225.20581055 C-119.11743073 222.41157464 -119.14946034 219.64205842 -119.13978577 216.84739685 C-119.14064019 215.96041156 -119.14149462 215.07342628 -119.14237493 214.15956265 C-119.14403246 211.16380949 -119.13850392 208.16811135 -119.13305664 205.17236328 C-119.1327748 203.03431194 -119.13293244 200.89626051 -119.13349915 198.75820923 C-119.13378725 192.93406562 -119.12788847 187.10994241 -119.12092519 181.28580356 C-119.11469376 175.20657373 -119.11408802 169.12734349 -119.11289978 163.04811096 C-119.10978584 151.52732557 -119.10157161 140.00654961 -119.09155029 128.48576838 C-119.0803911 115.37354126 -119.07487919 102.2613137 -119.06985486 89.14908302 C-119.05938904 62.16798575 -119.04104278 35.18690143 -119.01953125 8.20581055 C-101.19953125 8.20581055 -83.37953125 8.20581055 -65.01953125 8.20581055 C-64.52453125 18.60081055 -64.52453125 18.60081055 -64.01953125 29.20581055 C-62.90578125 27.72081055 -61.79203125 26.23581055 -60.64453125 24.70581055 C-45.5370873 6.01265564 -23.24827647 -0.20991056 0 0 Z " fill="#FCFCFC" transform="translate(1372.01953125,323.794189453125)"/>
<path d="M0 0 C0.69515717 -0.00040283 1.39031433 -0.00080566 2.10653687 -0.0012207 C32.43382776 0.09937739 58.87077477 11.1771203 80.4375 32.4375 C81.55125 33.53191406 81.55125 33.53191406 82.6875 34.6484375 C90.36958172 42.72062493 96.29362602 52.80044869 98.96484375 63.64453125 C99.2790602 65.44689369 99.2790602 65.44689369 100.4375 66.4375 C100.57865161 69.10808851 100.47997107 71.76182238 100.4375 74.4375 C92.66506345 74.79434186 84.89475454 75.03836855 77.1159668 75.20654297 C74.47421366 75.27667944 71.8329989 75.37202591 69.19311523 75.49365234 C47.76947571 76.45551354 47.76947571 76.45551354 42.20379639 73.08465576 C39.2403275 70.36165787 37.24199237 67.40070968 35.34790039 63.87207031 C31.16292612 56.34820858 23.3904837 53.48230352 15.5 51 C-0.60177634 47.20845022 -16.98751478 48.09824995 -31.375 56.6875 C-42.81985685 64.54441914 -50.49474474 75.10430221 -54.5625 88.4375 C-54.93200465 90.76537927 -55.27602467 93.09795145 -55.5625 95.4375 C-55.8925 95.7675 -56.2225 96.0975 -56.5625 96.4375 C-56.67603963 98.84167774 -56.72668398 101.21595246 -56.73046875 103.62109375 C-56.73379715 104.35062759 -56.73712555 105.08016144 -56.74055481 105.83180237 C-56.74563201 107.38452524 -56.74796289 108.93725907 -56.74780273 110.48999023 C-56.74996224 112.83401388 -56.76803282 115.17754583 -56.78710938 117.52148438 C-56.8325022 128.7477681 -56.15859223 138.43169549 -50.875 148.5 C-50.51905762 149.18900391 -50.16311523 149.87800781 -49.79638672 150.58789062 C-43.1931282 163.05973271 -34.07477069 172.59799879 -20.5625 177.4375 C-19.72203125 177.79199219 -18.8815625 178.14648438 -18.015625 178.51171875 C-4.94953686 182.01473107 11.5255282 180.88526455 23.4375 174.4375 C30.96508879 169.95155446 38.01746076 164.52932291 41.34375 156.15625 C42.47129445 153.57380948 43.19744787 152.17976277 45.4375 150.4375 C51.99378837 149.46012078 58.41153058 150.00666119 64.94921875 150.9375 C71.72700338 151.82762966 78.61104597 151.81024719 85.4375 152 C86.89454157 152.04327365 88.35157299 152.0868905 89.80859375 152.13085938 C93.35145412 152.23703302 96.89442963 152.33855111 100.4375 152.4375 C96.47743733 176.29651797 84.76377406 197.63993642 64.859375 212.1015625 C38.30409857 230.65936593 4.80315165 235.34674001 -26.9375 230.4375 C-47.16343655 226.79840759 -64.95593899 216.63405228 -79.5625 202.4375 C-80.23539063 201.82648438 -80.90828125 201.21546875 -81.6015625 200.5859375 C-94.31141016 188.68627933 -102.5824933 173.07738977 -107.8503418 156.64233398 C-108.29915999 155.25279779 -108.76804939 153.86943492 -109.26489258 152.49633789 C-113.75438732 139.98885861 -114.0808943 127.44917777 -114.125 114.3125 C-114.13348969 113.46726776 -114.14197937 112.62203552 -114.15072632 111.75119019 C-114.36159658 82.17672507 -104.55465633 56.21903337 -84.5625 34.4375 C-83.77101563 33.55191406 -82.97953125 32.66632813 -82.1640625 31.75390625 C-69.85760442 18.65018593 -53.48576002 10.02434545 -36.5625 4.4375 C-34.9228125 3.880625 -34.9228125 3.880625 -33.25 3.3125 C-22.28855658 0.71147953 -11.23557764 -0.00675428 0 0 Z " fill="#FDFDFD" transform="translate(1596.5625,323.5625)"/>
<path d="M0 0 C18.48 0 36.96 0 56 0 C56.02258388 39.475145 56.04049744 78.95028831 56.05106533 118.42543846 C56.05231611 123.08074479 56.05361042 127.73605111 56.05493164 132.39135742 C56.05519395 133.31818569 56.05545626 134.24501396 56.05572652 135.19992793 C56.06008355 150.22746187 56.06797127 165.25499201 56.0771528 180.28252368 C56.08648844 195.69024735 56.09205542 211.09796902 56.09408849 226.5056954 C56.09546391 236.02102502 56.09981549 245.53634389 56.10791647 255.0516702 C56.11318282 261.56749264 56.11480455 268.08330948 56.11350138 274.5991339 C56.11285782 278.3642356 56.11387746 282.12931843 56.11920547 285.89441681 C56.12492632 289.96660597 56.1230012 294.03875443 56.12025452 298.11094666 C56.12316736 299.31422779 56.1260802 300.51750892 56.12908131 301.75725311 C56.12709026 302.83909679 56.12509921 303.92094046 56.12304783 305.03556728 C56.12361741 306.44755733 56.12361741 306.44755733 56.1241985 307.88807243 C56 310 56 310 55 311 C36.85 311 18.7 311 0 311 C0 208.37 0 105.74 0 0 Z " fill="#FDFDFD" transform="translate(933,239)"/>
<path d="M0 0 C-0.46625147 4.69604293 -2.21586641 6.70891626 -5.5234375 9.984375 C-5.98424713 10.44426819 -6.44505676 10.90416138 -6.91983032 11.37799072 C-7.89870722 12.35083648 -8.88242972 13.31882761 -9.87060547 14.28222656 C-11.34569319 15.72140659 -12.80473481 17.17533315 -14.26171875 18.6328125 C-19.76435881 24.09281811 -25.47196292 29.18129139 -31.56298828 33.98730469 C-34.03674939 36.03035083 -36.26772899 38.19771553 -38.5 40.5 C-42.52430314 44.63948892 -46.86517493 48.20322157 -51.3671875 51.80859375 C-54.48321629 54.40220228 -57.28974072 57.20174654 -60.11328125 60.10546875 C-62.59464077 62.59710305 -65.22625189 64.87927488 -67.890625 67.171875 C-70.16653112 69.14432697 -72.39588207 71.16235365 -74.625 73.1875 C-79.36555191 77.47237095 -84.2077966 81.62920738 -89.09033203 85.75073242 C-91.78552208 88.03929731 -94.31697617 90.32451267 -96.79296875 92.859375 C-99 95 -99 95 -101 95 C-101 95.66 -101 96.32 -101 97 C-102.61718311 98.4328718 -104.29623372 99.79624749 -106 101.125 C-109.52665075 103.94092266 -112.86818387 106.75074076 -116 110 C-119.83714009 113.96294796 -124.04545915 117.33317053 -128.34375 120.78125 C-130.70898235 122.75691466 -132.85849905 124.78828591 -135 127 C-137.99316345 130.09129996 -141.14322312 132.80720096 -144.5 135.5 C-148.64154053 138.82465737 -152.41422003 142.30136319 -156.11328125 146.10546875 C-158.59127588 148.59372423 -161.21965132 150.8728526 -163.87890625 153.1640625 C-169.89395232 158.37045597 -175.74592303 163.76633925 -181.625 169.125 C-186.03934814 173.13691808 -190.46091882 177.12946566 -195 181 C-196.15242188 182.00546875 -196.15242188 182.00546875 -197.328125 183.03125 C-209.41156433 193.21477749 -222.28640483 197.23282254 -238 196 C-247.35466026 194.24692194 -256.35080255 188.83352128 -262.3359375 181.47265625 C-270.44483399 169.42352132 -274.1815144 157.55206974 -273 143 C-271.39526354 135.11084649 -268.52671951 130.61386396 -262 126 C-259.05856416 124.32859899 -256.02852794 122.93343191 -252.9375 121.5625 C-251.23117659 120.78124449 -249.52544991 119.9986844 -247.8203125 119.21484375 C-246.99176758 118.8369873 -246.16322266 118.45913086 -245.30957031 118.06982422 C-242.27152018 116.66255829 -239.29219624 115.15145373 -236.3125 113.625 C-229.04900823 109.95493558 -221.64796324 106.59853856 -214.2277832 103.25830078 C-207.80613906 100.34971496 -201.48672326 97.27510999 -195.1910553 94.10627747 C-187.85090405 90.41272252 -180.45979584 86.82738077 -173.0625 83.25 C-171.62238279 82.55276131 -170.18227885 81.85549523 -168.7421875 81.15820312 C-136.9930794 65.79148039 -136.9930794 65.79148039 -121.9375 58.75 C-114.76940784 55.39193679 -107.68413272 51.88145053 -100.61621094 48.31835938 C-94.89341938 45.43453384 -89.16674894 42.55847186 -83.4375 39.6875 C-82.78184052 39.35890991 -82.12618103 39.03031982 -81.45065308 38.69177246 C-72.42056987 34.170021 -63.35058361 29.7493022 -54.22045898 25.43237305 C-43.1424827 20.16522222 -32.198909 14.62469141 -21.24560547 9.10424805 C-20.48859344 8.72362717 -19.73158142 8.34300629 -18.95162964 7.95085144 C-17.53171704 7.23684067 -16.11264497 6.52115473 -14.6946106 5.80342102 C-3.14602121 0 -3.14602121 0 0 0 Z " fill="#FDFDFD" transform="translate(500,272)"/>
<path d="M0 0 C0.65656854 17.36259017 -1.73136082 30.848764 -13.4375 44.25 C-23.42648947 54.92500048 -33.23258716 61.48813063 -48.23828125 62.2890625 C-55.85754703 62.51740541 -63.02860767 62.40463347 -70 59 C-70.62003906 58.73316406 -71.24007813 58.46632813 -71.87890625 58.19140625 C-77.73157879 55.34723493 -81.2869203 50.43785278 -84.14453125 44.703125 C-86.22653562 38.12437148 -86.31754571 28.81562698 -83.4375 22.4375 C-78.02610397 13.71493506 -69.00074964 9.7983359 -59.35424805 7.46875 C-54.65461182 6.53301407 -49.88762628 6.11699352 -45.125 5.625 C-34.48431589 4.47174335 -23.92847156 2.99502527 -13.36572266 1.27001953 C-12.34140137 1.1048584 -11.31708008 0.93969727 -10.26171875 0.76953125 C-9.36412842 0.62104736 -8.46653809 0.47256348 -7.54174805 0.31958008 C-4.99882316 -0.00014797 -2.55997721 -0.05670927 0 0 Z " fill="#070F23" transform="translate(1162,449)"/>
<path d="M0 0 C2.01980758 1.42304625 3.84803552 2.93035638 5.6875 4.578125 C6.27917969 5.07828125 6.87085938 5.5784375 7.48046875 6.09375 C15.53265282 13.4171492 21.02005397 24.09058876 23.6875 34.578125 C23.6875 36.228125 23.6875 37.878125 23.6875 39.578125 C-9.9725 39.578125 -43.6325 39.578125 -78.3125 39.578125 C-75.96280289 25.47994233 -69.46291688 12.74624555 -58.3125 3.578125 C-55.10439169 1.29448015 -51.80973106 -0.61601313 -48.3125 -2.421875 C-47.549375 -2.83824219 -46.78625 -3.25460937 -46 -3.68359375 C-31.7869354 -10.17513768 -13.02644258 -8.00950186 0 0 Z " fill="#091024" transform="translate(1849.3125,375.421875)"/>
<path d="M0 0 C2 1 2 1 2.8125 2.8125 C2.874375 3.534375 2.93625 4.25625 3 5 C2.51942139 5.53915039 2.03884277 6.07830078 1.54370117 6.63378906 C-0.63691583 9.97627522 -0.47854889 13.17993314 -0.51171875 17.046875 C-0.52966995 17.81807678 -0.54762115 18.58927856 -0.56611633 19.3838501 C-0.62015769 21.83917832 -0.6540942 24.29431286 -0.6875 26.75 C-0.72067864 28.41799566 -0.75516882 30.08596579 -0.79101562 31.75390625 C-0.87588022 35.8357976 -0.94272026 39.91763214 -1 44 C-1.66 44 -2.32 44 -3 44 C-3.02487921 39.16195034 -3.04294428 34.32393865 -3.05493164 29.48583984 C-3.05993363 27.84292959 -3.06673733 26.20002373 -3.07543945 24.55712891 C-3.0876874 22.18390819 -3.09326979 19.81074677 -3.09765625 17.4375 C-3.10281754 16.71320801 -3.10797882 15.98891602 -3.11329651 15.24267578 C-3.11381763 10.41221206 -2.83419359 5.76494011 -2 1 C-1.34 0.67 -0.68 0.34 0 0 Z " fill="#15171C" transform="translate(114,381)"/>
<path d="M0 0 C0.763125 0.061875 1.52625 0.12375 2.3125 0.1875 C-2.38691967 5.85090319 -7.44264475 11.02941625 -12.6875 16.1875 C-13.70951554 17.20714976 -14.73061568 18.2277197 -15.75 19.25 C-16.389375 19.889375 -17.02875 20.52875 -17.6875 21.1875 C-18 19 -18 19 -17.6875 16.1875 C-15.625 13.875 -15.625 13.875 -12.6875 11.1875 C-10.87396328 9.16760899 -9.10579609 7.11284885 -7.3359375 5.0546875 C-3.06203339 0.21363024 -3.06203339 0.21363024 0 0 Z " fill="#0B0C13" transform="translate(133.6875,232.8125)"/>
<path d="M0 0 C-0.66 0 -1.32 0 -2 0 C-2.33 0.66 -2.66 1.32 -3 2 C-6.96 2 -10.92 2 -15 2 C-15 2.66 -15 3.32 -15 4 C-23.25 4 -31.5 4 -40 4 C-40 3.34 -40 2.68 -40 2 C-39.37134033 1.98018066 -38.74268066 1.96036133 -38.0949707 1.93994141 C-22.1749643 1.48139621 -22.1749643 1.48139621 -6.42578125 -0.6953125 C-3.95181142 -1.00605267 -2.3475678 -0.78069 0 0 Z " fill="#354759" transform="translate(1854,553)"/>
<path d="M0 0 C2.37507855 -0.02719556 4.74983964 -0.04693247 7.125 -0.0625 C8.12273437 -0.07506836 8.12273437 -0.07506836 9.140625 -0.08789062 C13.22712841 -0.1079225 16.98336409 0.3171719 21 1 C24.28841679 1.25776783 27.58017471 1.41115637 30.875 1.5625 C31.75414062 1.60568359 32.63328125 1.64886719 33.5390625 1.69335938 C35.69255797 1.79869339 37.84626064 1.89977649 40 2 C40 2.33 40 2.66 40 3 C35.91068318 3.05001046 31.82148859 3.08600357 27.73193359 3.10986328 C26.34518324 3.11982603 24.95845335 3.13340118 23.57177734 3.15087891 C15.50959656 3.24983708 7.84275197 3.07347869 0 1 C0 0.67 0 0.34 0 0 Z " fill="#242837" transform="translate(1656,473)"/>
<path d="M0 0 C0.66 0.33 1.32 0.66 2 1 C1.67 11.56 1.34 22.12 1 33 C0.34 33 -0.32 33 -1 33 C-1.02927916 29.00001563 -1.04689219 25.00005924 -1.0625 21 C-1.07087891 19.87464844 -1.07925781 18.74929688 -1.08789062 17.58984375 C-1.10533416 11.62415603 -0.91781223 5.89712427 0 0 Z " fill="#07070D" transform="translate(1540,421)"/>
<path d="M0 0 C0.33 0 0.66 0 1 0 C1.2105262 14.14736081 1.3661082 28.01461045 -1 42 C-1.33 42 -1.66 42 -2 42 C-2.33 40.35 -2.66 38.7 -3 37 C-3.33 37 -3.66 37 -4 37 C-4.32983991 33.59165421 -3.75238518 31.18674084 -2.53125 28.0625 C-0.58853868 22.39525311 -0.44382589 16.88468654 -0.3125 10.9375 C-0.27833984 9.88111328 -0.24417969 8.82472656 -0.20898438 7.73632812 C-0.12730705 5.15765843 -0.05790057 2.57929438 0 0 Z " fill="#505159" transform="translate(466,393)"/>
<path d="M0 0 C0 3.50051525 -0.52511319 4.0126916 -2.75 6.5625 C-3.26046875 7.16191406 -3.7709375 7.76132812 -4.296875 8.37890625 C-6 10 -6 10 -7.9375 10.92578125 C-10.68217823 12.35530116 -12.24343118 14.28400304 -14.25 16.625 C-14.95640625 17.44226563 -15.6628125 18.25953125 -16.390625 19.1015625 C-16.92171875 19.72804688 -17.4528125 20.35453125 -18 21 C-18.99 20.34 -19.98 19.68 -21 19 C-7.04255319 6.04255319 -7.04255319 6.04255319 0 0 Z " fill="#1E2029" transform="translate(367,396)"/>
<path d="M0 0 C-1.34156431 2.90779249 -2.86107035 5.2517899 -4.9375 7.6875 C-5.44152344 8.28949219 -5.94554687 8.89148438 -6.46484375 9.51171875 C-8 11 -8 11 -11 12 C-12.37195574 13.29355827 -13.71182656 14.62298702 -15 16 C-15.66 15.67 -16.32 15.34 -17 15 C-14.54976242 12.49195282 -12.08852402 9.9949924 -9.625 7.5 C-8.57699219 6.42685547 -8.57699219 6.42685547 -7.5078125 5.33203125 C-6.8375 4.65527344 -6.1671875 3.97851562 -5.4765625 3.28125 C-4.85861816 2.65283203 -4.24067383 2.02441406 -3.60400391 1.37695312 C-2 0 -2 0 0 0 Z " fill="#1A1A22" transform="translate(499,278)"/>
<path d="M0 0 C0.99 0.33 1.98 0.66 3 1 C2.34 7.93 1.68 14.86 1 22 C0.34 20.68 -0.32 19.36 -1 18 C-0.67 17.01 -0.34 16.02 0 15 C0.03954234 12.66700175 0.04401732 10.33291811 0 8 C-0.66 7.67 -1.32 7.34 -2 7 C-1.125 2.25 -1.125 2.25 0 0 Z " fill="#212332" transform="translate(61,366)"/>
<path d="M0 0 C2 3.75 2 3.75 2 6 C1.34 6 0.68 6 0 6 C0 16.89 0 27.78 0 39 C-0.33 39 -0.66 39 -1 39 C-1.02474682 34.08870815 -1.04288223 29.17745273 -1.05493164 24.26611328 C-1.05995569 22.59585945 -1.06677605 20.92561001 -1.07543945 19.25537109 C-1.08758946 16.85252804 -1.09324763 14.44974321 -1.09765625 12.046875 C-1.10281754 11.30193787 -1.10797882 10.55700073 -1.11329651 9.78948975 C-1.11366364 6.38497809 -1.07330918 3.25335241 0 0 Z " fill="#2A2D33" transform="translate(666,372)"/>
<path d="M0 0 C0.66 0 1.32 0 2 0 C2.56131481 6.45512034 0.63463787 11.15439723 -2 17 C-2.66 16.67 -3.32 16.34 -4 16 C-3.40796242 11.38210689 -2.15186422 7.22805233 -0.62109375 2.85546875 C0.05290422 1.16806293 0.05290422 1.16806293 0 0 Z " fill="#080A16" transform="translate(71,325)"/>
<path d="M0 0 C0.66 0.33 1.32 0.66 2 1 C2 1.66 2 2.32 2 3 C4.64 3.33 7.28 3.66 10 4 C10 4.99 10 5.98 10 7 C10.66 7 11.32 7 12 7 C11.67 7.99 11.34 8.98 11 10 C6.38 7.69 1.76 5.38 -3 3 C-3 2.34 -3 1.68 -3 1 C-2.01 0.67 -1.02 0.34 0 0 Z " fill="#17151E" transform="translate(394,192)"/>
<path d="M0 0 C0 0.33 0 0.66 0 1 C-6.04819812 1.88902912 -11.89223486 2.12348383 -18 2.0625 C-18.87011719 2.05798828 -19.74023438 2.05347656 -20.63671875 2.04882812 C-22.75784293 2.0371736 -24.8789311 2.01924357 -27 2 C-27 1.67 -27 1.34 -27 1 C-17.74545543 -0.86013271 -9.37490608 -1.04009453 0 0 Z " fill="#434855" transform="translate(780,499)"/>
<path d="M0 0 C0.66 0.33 1.32 0.66 2 1 C1.38511719 1.59167969 0.77023437 2.18335938 0.13671875 2.79296875 C-0.67152344 3.58316406 -1.47976563 4.37335938 -2.3125 5.1875 C-3.11300781 5.96480469 -3.91351563 6.74210937 -4.73828125 7.54296875 C-6.91076308 9.90305695 -8.46130013 12.19647888 -10 15 C-11.32 14.34 -12.64 13.68 -14 13 C-9.38 8.71 -4.76 4.42 0 0 Z " fill="#1D1F28" transform="translate(436,334)"/>
<path d="M0 0 C0.33 0 0.66 0 1 0 C1.33776684 1.7491497 1.67003671 3.49936145 2 5.25 C2.185625 6.22453125 2.37125 7.1990625 2.5625 8.203125 C3 11 3 11 3 15 C1.68 14.34 0.36 13.68 -1 13 C-1.02686553 11.02090602 -1.04633375 9.04171029 -1.0625 7.0625 C-1.07410156 5.96035156 -1.08570313 4.85820312 -1.09765625 3.72265625 C-1 1 -1 1 0 0 Z " fill="#0C0E19" transform="translate(225,419)"/>
<path d="M0 0 C0.66 0.33 1.32 0.66 2 1 C0.40907948 5.13639336 -2.60474918 8.23213248 -6 11 C-6.66 11 -7.32 11 -8 11 C-7.43040847 7.37386801 -6.07625466 5.74482259 -3.4375 3.25 C-2.79683594 2.63640625 -2.15617187 2.0228125 -1.49609375 1.390625 C-1.00238281 0.93171875 -0.50867188 0.4728125 0 0 Z " fill="#0D0F18" transform="translate(496,349)"/>
<path d="M0 0 C0 3 0 3 -1.75 5.04296875 C-2.4925 5.75066406 -3.235 6.45835937 -4 7.1875 C-4.7425 7.90292969 -5.485 8.61835937 -6.25 9.35546875 C-7.11625 10.16951172 -7.11625 10.16951172 -8 11 C-8.66 10.67 -9.32 10.34 -10 10 C-4.52830189 1.50943396 -4.52830189 1.50943396 0 0 Z " fill="#0B0D15" transform="translate(462,558)"/>
<path d="M0 0 C0.66 0.33 1.32 0.66 2 1 C1.45660208 5.56454251 0.20536179 8.9728176 -2 13 C-2.99 13 -3.98 13 -5 13 C-4.731875 12.34 -4.46375 11.68 -4.1875 11 C-2.74294953 7.35060933 -1.37128822 3.67754567 0 0 Z " fill="#090A17" transform="translate(616,325)"/>
<path d="M0 0 C1.65 0 3.3 0 5 0 C5.66 1.32 6.32 2.64 7 4 C8.65 4 10.3 4 12 4 C12 4.66 12 5.32 12 6 C9 7 9 7 6.73828125 6.00390625 C5.93777344 5.52824219 5.13726563 5.05257813 4.3125 4.5625 C3.50425781 4.08941406 2.69601562 3.61632812 1.86328125 3.12890625 C1.24839844 2.75636719 0.63351562 2.38382812 0 2 C0 1.34 0 0.68 0 0 Z " fill="#171520" transform="translate(1175,333)"/>
<path d="M0 0 C1.98 0 3.96 0 6 0 C2.17058011 3.32993034 -2.37522222 5.05324525 -7 7 C-7 6.01 -7 5.02 -7 4 C-6.34 4 -5.68 4 -5 4 C-5 3.34 -5 2.68 -5 2 C-3.35 2 -1.7 2 0 2 C0 1.34 0 0.68 0 0 Z " fill="#1E1F25" transform="translate(481,277)"/>
<path d="M0 0 C0.33 0 0.66 0 1 0 C1.33 6.6 1.66 13.2 2 20 C1.67 20 1.34 20 1 20 C1 17.69 1 15.38 1 13 C0.01 13.33 -0.98 13.66 -2 14 C-1.7834375 13.0409375 -1.7834375 13.0409375 -1.5625 12.0625 C-0.82763202 8.06155212 -0.41418889 4.04495104 0 0 Z " fill="#3A3C48" transform="translate(61,419)"/>
<path d="M0 0 C0.99 0 1.98 0 3 0 C3.09978121 3.49234244 2.77842938 6.59437148 2 10 C1.34 10 0.68 10 0 10 C-0.66 10.66 -1.32 11.32 -2 12 C-1.855625 11.319375 -1.71125 10.63875 -1.5625 9.9375 C-0.93054091 6.63726918 -0.45686059 3.32855574 0 0 Z " fill="#1E2129" transform="translate(117,355)"/>
<path d="M0 0 C-1.49097658 3.7952131 -3.75700849 5.61042731 -7 8 C-7.66 7.34 -8.32 6.68 -9 6 C-8.07213211 4.99105628 -7.13231567 3.99309093 -6.1875 3 C-5.66542969 2.443125 -5.14335937 1.88625 -4.60546875 1.3125 C-3 0 -3 0 0 0 Z " fill="#1F2027" transform="translate(506,343)"/>
<path d="M0 0 C1.43836751 0.11458693 2.87570966 0.24209116 4.3125 0.375 C5.51326172 0.47941406 5.51326172 0.47941406 6.73828125 0.5859375 C9 1 9 1 12 3 C12 3.66 12 4.32 12 5 C6.71201818 4.58525633 3.88309282 3.64775386 0 0 Z " fill="#12111A" transform="translate(369,184)"/>
<path d="M0 0 C-3.465 2.97 -3.465 2.97 -7 6 C-7.99 5.34 -8.98 4.68 -10 4 C-4.5 -1.125 -4.5 -1.125 0 0 Z " fill="#14161F" transform="translate(143,228)"/>
<path d="M0 0 C-0.99 0.495 -0.99 0.495 -2 1 C-2 1.66 -2 2.32 -2 3 C-8.93 2.505 -8.93 2.505 -16 2 C-16 1.67 -16 1.34 -16 1 C-10.59255982 0.22750855 -5.46137814 -0.09752461 0 0 Z " fill="#414F5F" transform="translate(781,554)"/>
<path d="M0 0 C0.99 0.495 0.99 0.495 2 1 C2.51953125 2.9609375 2.51953125 2.9609375 2.8125 5.375 C2.97685547 6.56222656 2.97685547 6.56222656 3.14453125 7.7734375 C3 10 3 10 0 13 C0 8.71 0 4.42 0 0 Z " fill="#090711" transform="translate(1307,342)"/>
<path d="M0 0 C1.77049689 -0.05410687 3.54146849 -0.09284119 5.3125 -0.125 C6.29863281 -0.14820313 7.28476562 -0.17140625 8.30078125 -0.1953125 C11 0 11 0 14 2 C13.67 2.33 13.34 2.66 13 3 C11.07421875 2.94921875 11.07421875 2.94921875 8.6875 2.6875 C7.51767578 2.56955078 7.51767578 2.56955078 6.32421875 2.44921875 C3.91792729 1.98413721 2.12866168 1.19341444 0 0 Z " fill="#0B0B17" transform="translate(786,240)"/>
<path d="M0 0 C3.625 0.375 3.625 0.375 7 1 C7.33 2.32 7.66 3.64 8 5 C4.44219804 4.39009109 1.3171411 3.4216319 -2 2 C-1.34 1.34 -0.68 0.68 0 0 Z " fill="#22202A" transform="translate(381,188)"/>
<path d="M0 0 C-3.86790352 2.57860235 -6.76613915 2.01114505 -11.1875 1.625 C-11.93708984 1.56828125 -12.68667969 1.5115625 -13.45898438 1.453125 C-15.30676559 1.31189331 -17.153512 1.15723833 -19 1 C-19 0.67 -19 0.34 -19 0 C-16.58373582 -0.19534474 -14.16734771 -0.38153404 -11.75 -0.5625 C-11.06808594 -0.61857422 -10.38617187 -0.67464844 -9.68359375 -0.73242188 C-6.2579419 -0.98186254 -3.27298823 -1.13879745 0 0 Z " fill="#2A3C4E" transform="translate(1109,555)"/>
<path d="M0 0 C0.99 0 1.98 0 3 0 C1.62845496 2.95409701 0.01136276 5.44008376 -2 8 C-2.99 7.67 -3.98 7.34 -5 7 C-4.24172908 5.82512964 -3.46792245 4.66027408 -2.6875 3.5 C-2.25824219 2.8503125 -1.82898438 2.200625 -1.38671875 1.53125 C-0.70029297 0.77328125 -0.70029297 0.77328125 0 0 Z " fill="#1C1C21" transform="translate(475,538)"/>
<path d="M0 0 C2 1 2 1 2.8125 2.8125 C3 5 3 5 1.6875 7.25 C1.130625 7.8275 0.57375 8.405 0 9 C-0.66 9 -1.32 9 -2 9 C-2 6.36 -2 3.72 -2 1 C-1.34 0.67 -0.68 0.34 0 0 Z " fill="#20242E" transform="translate(114,381)"/>
<path d="M0 0 C0.99 0.33 1.98 0.66 3 1 C1.63016497 4.16115776 1.0109362 4.9927092 -2 7 C-2.66 6.67 -3.32 6.34 -4 6 C-3.34 4.68 -2.68 3.36 -2 2 C-1.34 2 -0.68 2 0 2 C0 1.34 0 0.68 0 0 Z " fill="#151723" transform="translate(1512,353)"/>
<path d="M0 0 C-1.55500981 3.81684226 -4.03595495 6.19195732 -7 9 C-7.3125 6.75 -7.3125 6.75 -7 4 C-2.89189189 0 -2.89189189 0 0 0 Z " fill="#11121B" transform="translate(123,245)"/>
<path d="M0 0 C-1.98 0.33 -3.96 0.66 -6 1 C-6 1.66 -6 2.32 -6 3 C-8 4.625 -8 4.625 -10 6 C-10.66 5.67 -11.32 5.34 -12 5 C-11.67 3.68 -11.34 2.36 -11 1 C-3.57142857 -1.42857143 -3.57142857 -1.42857143 0 0 Z " fill="#263341" transform="translate(241,233)"/>
<path d="M0 0 C2.12038635 2.61514317 4.13091744 5.19637616 6 8 C5.67 8.99 5.34 9.98 5 11 C4.34 10.67 3.68 10.34 3 10 C3 9.01 3 8.02 3 7 C2.01 6.67 1.02 6.34 0 6 C0 4.02 0 2.04 0 0 Z " fill="#191C25" transform="translate(1497,500)"/>
<path d="M0 0 C0.99 0 1.98 0 3 0 C3 0.66 3 1.32 3 2 C3.66 2 4.32 2 5 2 C8 5.46153846 8 5.46153846 8 8 C4.63820226 6.55922954 2.40843732 4.75249979 0 2 C0 1.34 0 0.68 0 0 Z " fill="#0B0816" transform="translate(1783,487)"/>
<path d="M0 0 C0.33 0.66 0.66 1.32 1 2 C1.99 2 2.98 2 4 2 C4 5.96 4 9.92 4 14 C3.67 14 3.34 14 3 14 C3 11.36 3 8.72 3 6 C2.34 6 1.68 6 1 6 C0.67 4.02 0.34 2.04 0 0 Z " fill="#262737" transform="translate(603,361)"/>
<path d="M0 0 C0.33 0.66 0.66 1.32 1 2 C3.01669827 3.13350534 3.01669827 3.13350534 5 4 C0.47907032 5.45606519 -2.51648796 4.27032841 -7 3 C-3.375 0 -3.375 0 0 0 Z " fill="#272730" transform="translate(803,241)"/>
<path d="M0 0 C0.66 0.99 1.32 1.98 2 3 C0.35 4.65 -1.3 6.3 -3 8 C-3.75 6.25 -3.75 6.25 -4 4 C-2.0625 1.75 -2.0625 1.75 0 0 Z " fill="#12141C" transform="translate(1152,484)"/>
<path d="M0 0 C0.66 0 1.32 0 2 0 C1.34 2.97 0.68 5.94 0 9 C-0.66 8.67 -1.32 8.34 -2 8 C-2.125 5.125 -2.125 5.125 -2 2 C-1.34 1.34 -0.68 0.68 0 0 Z " fill="#141522" transform="translate(228,406)"/>
<path d="M0 0 C0.33 0 0.66 0 1 0 C1.05386629 2.12472576 1.09273071 4.24983652 1.125 6.375 C1.14820313 7.55835938 1.17140625 8.74171875 1.1953125 9.9609375 C1 13 1 13 -1 15 C-1.38218767 13.34385343 -1.71395102 11.67542976 -2 10 C-1.67 9.67 -1.34 9.34 -1 9 C-0.76807135 7.48530552 -0.58784762 5.96245438 -0.4375 4.4375 C-0.35371094 3.61121094 -0.26992188 2.78492188 -0.18359375 1.93359375 C-0.12300781 1.29550781 -0.06242188 0.65742188 0 0 Z " fill="#0C0B18" transform="translate(604,375)"/>
<path d="M0 0 C7.42857143 -0.28571429 7.42857143 -0.28571429 11 2 C10.67 2.33 10.34 2.66 10 3 C8.30858344 2.91036938 6.62040398 2.75422324 4.9375 2.5625 C3.55884766 2.40974609 3.55884766 2.40974609 2.15234375 2.25390625 C1.44207031 2.17011719 0.73179687 2.08632812 0 2 C0 1.34 0 0.68 0 0 Z " fill="#252430" transform="translate(337,176)"/>
<path d="M0 0 C2.23551759 3.35327639 2.17283528 3.90743657 1.625 7.6875 C1.51414062 8.49574219 1.40328125 9.30398438 1.2890625 10.13671875 C1.19367188 10.75160156 1.09828125 11.36648438 1 12 C0.67 12 0.34 12 0 12 C0 10.35 0 8.7 0 7 C-0.66 7 -1.32 7 -2 7 C-1.42415568 4.61435923 -0.77772405 2.33317216 0 0 Z " fill="#13141B" transform="translate(460,442)"/>
<path d="M0 0 C-1.39332574 3.36720387 -2.9789286 4.9859524 -6 7 C-6.33 6.01 -6.66 5.02 -7 4 C-3.375 0 -3.375 0 0 0 Z " fill="#0A0B15" transform="translate(1039,439)"/>
<path d="M0 0 C0.66 0 1.32 0 2 0 C2 0.66 2 1.32 2 2 C2.99 1.67 3.98 1.34 5 1 C5 2.98 5 4.96 5 7 C2 6 2 6 0 3 C0 2.01 0 1.02 0 0 Z " fill="#0C0D18" transform="translate(1434,345)"/>
<path d="M0 0 C1.6026782 -0.10824843 3.20745748 -0.18570645 4.8125 -0.25 C5.70582031 -0.29640625 6.59914063 -0.3428125 7.51953125 -0.390625 C10 0 10 0 13 4 C8.71 3.01 4.42 2.02 0 1 C0 0.67 0 0.34 0 0 Z " fill="#27262E" transform="translate(1626,327)"/>
<path d="M0 0 C1.65 0 3.3 0 5 0 C5.99 1.98 6.98 3.96 8 6 C5.0280615 4.87548273 2.66559313 3.77706209 0 2 C0 1.34 0 0.68 0 0 Z " fill="#15131D" transform="translate(419,209)"/>
<path d="M0 0 C0.99 0.33 1.98 0.66 3 1 C2.01 3.97 1.02 6.94 0 10 C-0.33 9.01 -0.66 8.02 -1 7 C-1.66 6.67 -2.32 6.34 -3 6 C-2.01 5.67 -1.02 5.34 0 5 C-0.2784375 4.0409375 -0.2784375 4.0409375 -0.5625 3.0625 C-0.706875 2.381875 -0.85125 1.70125 -1 1 C-0.67 0.67 -0.34 0.34 0 0 Z " fill="#1B1B29" transform="translate(449,477)"/>
<path d="M0 0 C0.99 0 1.98 0 3 0 C1.7508258 3.45925163 0.32472205 6.14693203 -2 9 C-2.125 5.625 -2.125 5.625 -2 2 C-1.34 1.34 -0.68 0.68 0 0 Z " fill="#1C1D29" transform="translate(1156,476)"/>
<path d="M0 0 C0.99 0 1.98 0 3 0 C3.66 2.97 4.32 5.94 5 9 C2.5 6.75 2.5 6.75 0 4 C0 2.68 0 1.36 0 0 Z " fill="#2A2C36" transform="translate(1484,471)"/>
<path d="M0 0 C0 0.66 0 1.32 0 2 C-1.63790712 3.04644066 -3.31008021 4.0398183 -5 5 C-6.34631825 5.98244845 -7.68441297 6.97676564 -9 8 C-9.66 7.67 -10.32 7.34 -11 7 C-9.87720538 6.01830524 -8.75168527 5.03972702 -7.625 4.0625 C-6.68527344 3.24458984 -6.68527344 3.24458984 -5.7265625 2.41015625 C-3.71547429 0.76761588 -2.62199195 0 0 0 Z " fill="#2A2E38" transform="translate(1092,461)"/>
<path d="M0 0 C0.33 0 0.66 0 1 0 C1.33 4.29 1.66 8.58 2 13 C-1 9 -1 9 -1.07421875 6.640625 C-0.94660156 5.85171875 -0.81898437 5.0628125 -0.6875 4.25 C-0.56761719 3.45078125 -0.44773438 2.6515625 -0.32421875 1.828125 C-0.21722656 1.22484375 -0.11023437 0.6215625 0 0 Z " fill="#070815" transform="translate(61,432)"/>
<path d="M0 0 C0 0.33 0 0.66 0 1 C-5.28 1 -10.56 1 -16 1 C-16 0.67 -16 0.34 -16 0 C-10.03241883 -2.28545662 -6.07806891 -1.79172099 0 0 Z " fill="#1E1F29" transform="translate(1118,418)"/>
<path d="M0 0 C1.65 0 3.3 0 5 0 C5 0.66 5 1.32 5 2 C6.65 2 8.3 2 10 2 C9.34 2.66 8.68 3.32 8 4 C5.0574037 3.69347955 2.65457692 3.32728846 0 2 C0 1.34 0 0.68 0 0 Z " fill="#201E28" transform="translate(809,245)"/>
<path d="M0 0 C0.99 0 1.98 0 3 0 C3 0.66 3 1.32 3 2 C-2.17578125 5.22265625 -2.17578125 5.22265625 -4 6 C-4.99 5.67 -5.98 5.34 -7 5 C-6.01 4.67 -5.02 4.34 -4 4 C-4 3.34 -4 2.68 -4 2 C-2.68 2 -1.36 2 0 2 C0 1.34 0 0.68 0 0 Z " fill="#1D1D23" transform="translate(184,197)"/>
<path d="M0 0 C0 0.99 0 1.98 0 3 C-1.98 3.66 -3.96 4.32 -6 5 C-5.625 3.0625 -5.625 3.0625 -5 1 C-3 0 -3 0 0 0 Z " fill="#0E0E18" transform="translate(354,571)"/>
<path d="M0 0 C0.99 0 1.98 0 3 0 C2.67 3.3 2.34 6.6 2 10 C1.67 10 1.34 10 1 10 C1 8.35 1 6.7 1 5 C0.34 5 -0.32 5 -1 5 C-0.67 3.35 -0.34 1.7 0 0 Z " fill="#1C1E2C" transform="translate(461,435)"/>
<path d="M0 0 C0.66 0.33 1.32 0.66 2 1 C1.25 6.75 1.25 6.75 -1 9 C-1.625 6.1875 -1.625 6.1875 -2 3 C-1.34 2.01 -0.68 1.02 0 0 Z " fill="#080911" transform="translate(1720,390)"/>
<path d="M0 0 C0.66 0.33 1.32 0.66 2 1 C2 3.97 2 6.94 2 10 C1.01 9.67 0.02 9.34 -1 9 C-1.125 2.25 -1.125 2.25 0 0 Z " fill="#20222C" transform="translate(607,352)"/>
<path d="M0 0 C3.24208567 0.35049575 4.61527704 0.56221181 6.8125 3.0625 C7.204375 3.701875 7.59625 4.34125 8 5 C4.62537285 4.45276317 2.91765 3.9451 0 2 C0 1.34 0 0.68 0 0 Z " fill="#0F0D16" transform="translate(1648,333)"/>
<path d="M0 0 C2.375 0.75 2.375 0.75 5 2 C5.66 3.32 6.32 4.64 7 6 C4.03 5.01 1.06 4.02 -2 3 C-1.34 2.67 -0.68 2.34 0 2 C0 1.34 0 0.68 0 0 Z " fill="#26242D" transform="translate(1641,329)"/>
<path d="M0 0 C1.65 0 3.3 0 5 0 C4.34 1.32 3.68 2.64 3 4 C1.68 4 0.36 4 -1 4 C-0.67 2.68 -0.34 1.36 0 0 Z " fill="#0F131D" transform="translate(818,544)"/>
<path d="M0 0 C2.32590854 3.63423209 2.16265833 6.77088331 2 11 C1.67 9.68 1.34 8.36 1 7 C0.34 7 -0.32 7 -1 7 C-1.04254356 5.00045254 -1.04080783 2.99958364 -1 1 C-0.67 0.67 -0.34 0.34 0 0 Z " fill="#1A1A2A" transform="translate(1713,416)"/>
<path d="M0 0 C6.75 0.75 6.75 0.75 9 3 C7.3125 3.75 7.3125 3.75 5 4 C2.25 2.0625 2.25 2.0625 0 0 Z " fill="#050911" transform="translate(1608,374)"/>
<path d="M0 0 C-3.96 1.98 -3.96 1.98 -8 4 C-8 2.68 -8 1.36 -8 0 C-4.63458162 -1.08174162 -3.70152678 -0.92538169 0 0 Z " fill="#1A1921" transform="translate(1544,335)"/>
<path d="M0 0 C1.258125 -0.04125 2.51625 -0.0825 3.8125 -0.125 C4.52019531 -0.14820313 5.22789063 -0.17140625 5.95703125 -0.1953125 C8 0 8 0 11 2 C6.70700357 3.26264601 4.12168689 2.62950412 0 1 C0 0.67 0 0.34 0 0 Z " fill="#12111B" transform="translate(1392,324)"/>
<path d="M0 0 C-0.375 2.4375 -0.375 2.4375 -1 5 C-1.99 5.495 -1.99 5.495 -3 6 C-3.99 4.68 -4.98 3.36 -6 2 C-2.25 0 -2.25 0 0 0 Z " fill="#DBE1DF" transform="translate(500,272)"/>
<path d="M0 0 C0.66 0.33 1.32 0.66 2 1 C0.25 5.875 0.25 5.875 -2 7 C-2.66 6.34 -3.32 5.68 -4 5 C-2.68 3.35 -1.36 1.7 0 0 Z " fill="#131522" transform="translate(100,271)"/>
<path d="M0 0 C2.64 0.33 5.28 0.66 8 1 C7.67 2.32 7.34 3.64 7 5 C3.535 3.02 3.535 3.02 0 1 C0 0.67 0 0.34 0 0 Z " fill="#1F1C26" transform="translate(832,256)"/>
<path d="M0 0 C0.99 1.485 0.99 1.485 2 3 C-1.63 2.01 -5.26 1.02 -9 0 C-9 -0.33 -9 -0.66 -9 -1 C-3.375 -2.25 -3.375 -2.25 0 0 Z " fill="#36343F" transform="translate(371,184)"/>
<path d="M0 0 C1.32 0.66 2.64 1.32 4 2 C0.04 3.98 0.04 3.98 -4 6 C-4 5.01 -4 4.02 -4 3 C-3.01 3 -2.02 3 -1 3 C-0.67 2.01 -0.34 1.02 0 0 Z " fill="#24242A" transform="translate(376,560)"/>
<path d="M0 0 C0.66 0 1.32 0 2 0 C3.0625 1.8125 3.0625 1.8125 4 4 C3.67 4.99 3.34 5.98 3 7 C2.01 6.34 1.02 5.68 0 5 C-0.1875 2.375 -0.1875 2.375 0 0 Z " fill="#0F121A" transform="translate(1025,518)"/>
<path d="M0 0 C0.99 0.33 1.98 0.66 3 1 C-0.465 3.97 -0.465 3.97 -4 7 C-3.04065919 3.16263678 -2.76390737 2.40339772 0 0 Z " fill="#0E0F17" transform="translate(1145,493)"/>
<path d="M0 0 C0.33 0 0.66 0 1 0 C1.125 5.75 1.125 5.75 0 8 C-0.99 8 -1.98 8 -3 8 C-1.125 2.25 -1.125 2.25 0 0 Z " fill="#0C0D18" transform="translate(67,344)"/>
<path d="M0 0 C2.4375 0.8125 2.4375 0.8125 5 2 C5.33 2.99 5.66 3.98 6 5 C4.35 4.67 2.7 4.34 1 4 C0.67 2.68 0.34 1.36 0 0 Z " fill="#191720" transform="translate(1876,333)"/>
<path d="M0 0 C0.66 0 1.32 0 2 0 C0.71480435 2.86697492 -0.57129254 4.97607712 -3 7 C-3.66 7 -4.32 7 -5 7 C-4.67 6.01 -4.34 5.02 -4 4 C-3.34 4 -2.68 4 -2 4 C-1.34 2.68 -0.68 1.36 0 0 Z " fill="#0B0A14" transform="translate(649,279)"/>
<path d="M0 0 C-2.85306797 2.32472205 -5.54074837 3.7508258 -9 5 C-9 4.01 -9 3.02 -9 2 C-5.86501708 0.14223235 -3.62528568 -0.20140476 0 0 Z " fill="#26262B" transform="translate(691,253)"/>
<path d="M0 0 C0 0.99 0 1.98 0 3 C-1.98 3.33 -3.96 3.66 -6 4 C-6 3.01 -6 2.02 -6 1 C-3 0 -3 0 0 0 Z " fill="#050816" transform="translate(367,624)"/>
<path d="M0 0 C2.97 0.33 5.94 0.66 9 1 C9 1.33 9 1.66 9 2 C5.7 2.33 2.4 2.66 -1 3 C-0.67 2.01 -0.34 1.02 0 0 Z " fill="#141624" transform="translate(254,580)"/>
<path d="M0 0 C2.91517292 1.07401108 4.77810176 1.77810176 7 4 C5.35 4.33 3.7 4.66 2 5 C2 4.34 2 3.68 2 3 C1.34 3 0.68 3 0 3 C0 2.01 0 1.02 0 0 Z " fill="#12141E" transform="translate(1525,534)"/>
<path d="M0 0 C2.3125 0.125 2.3125 0.125 5 1 C6.8125 4.0625 6.8125 4.0625 8 7 C4.2047869 5.50902342 2.38957269 3.24299151 0 0 Z " fill="#0C0A18" transform="translate(1669,348)"/>
<path d="M0 0 C0.66 0 1.32 0 2 0 C2 1.65 2 3.3 2 5 C1.01 5 0.02 5 -1 5 C-1.33 5.66 -1.66 6.32 -2 7 C-1.125 1.125 -1.125 1.125 0 0 Z " fill="#070A15" transform="translate(610,341)"/>
<path d="M0 0 C1.32 0 2.64 0 4 0 C4.33 0.99 4.66 1.98 5 3 C5.66 3.66 6.32 4.32 7 5 C3.47967572 5 2.5614657 4.29648649 0 2 C0 1.34 0 0.68 0 0 Z " fill="#1C1924" transform="translate(1887,341)"/>
<path d="M0 0 C2.31 0 4.62 0 7 0 C7 0.66 7 1.32 7 2 C4.69 2.33 2.38 2.66 0 3 C0 2.01 0 1.02 0 0 Z " fill="#191D2F" transform="translate(933,236)"/>
</svg>
