<?xml version="1.0" encoding="UTF-8"?>
<svg version="1.1" xmlns="http://www.w3.org/2000/svg" width="437" height="178">
<path d="M0 0 C3.63 0 7.26 0 11 0 C11.02578125 0.99 11.0515625 1.98 11.078125 3 C11.40585066 11.60143758 12.03672421 18.15599625 17.6875 25.0625 C20.9020021 26.36567653 23.43878166 25.7807935 26.81640625 25.25390625 C29.38369421 24.95538439 31.48770381 25.48276255 34 26 C34.99 25.34 35.98 24.68 37 24 C43.33333333 23.66666667 43.33333333 23.66666667 46 25 C46.061875 23.7625 46.12375 22.525 46.1875 21.25 C46.60739858 18.08676406 46.90261068 17.11869324 49 14.5625 C52.96048359 12.49974813 56.584868 12.19238048 61 12 C60.896875 11.278125 60.79375 10.55625 60.6875 9.8125 C61.1279737 5.84823674 63.04291169 4.53464713 66 2 C69.50511507 0.24744246 73.29253584 1.04386451 77 2 C78.70993434 3.6222454 80.37347684 5.29413425 82 7 C84.49791174 8.09334826 87.00164817 8.98049741 89.59765625 9.8125 C92.869891 11.4299949 94.15687837 12.82782468 96 16 C96.56787108 19.16190024 96.55921209 22.23264586 96.5 25.4375 C96.52320313 26.68756836 96.52320313 26.68756836 96.546875 27.96289062 C96.54171875 28.77822266 96.5365625 29.59355469 96.53125 30.43359375 C96.52673828 31.16634521 96.52222656 31.89909668 96.51757812 32.65405273 C95.74387125 36.16091563 94.28644946 38.24102109 92 41 C88.83279419 41.75504684 88.83279419 41.75504684 85.01611328 41.76190186 C84.31314684 41.7712618 83.6101804 41.78062174 82.88591194 41.79026532 C80.52994476 41.81420227 78.17629694 41.79524408 75.8203125 41.77636719 C74.13163901 41.78449728 72.44297616 41.7951803 70.7543335 41.80822754 C66.16740639 41.83560415 61.58128805 41.82496633 56.99434662 41.80595303 C52.1968923 41.79077486 47.39950778 41.80484682 42.60205078 41.81427002 C34.54512075 41.82518965 26.48852059 41.81079058 18.43164062 41.78222656 C9.1132851 41.74957199 -0.20428282 41.76014874 -9.52261925 41.793185 C-17.51936783 41.8204024 -25.51587914 41.82426032 -33.51265907 41.80855298 C-38.29045143 41.79919288 -43.06787344 41.79796761 -47.84564209 41.81777191 C-52.3373684 41.83508959 -56.82807818 41.82311068 -61.31969452 41.78840637 C-62.96925924 41.78046457 -64.61890935 41.7827658 -66.26844025 41.79598236 C-68.51882371 41.81235241 -70.76593897 41.79186275 -73.01611328 41.76190186 C-74.27561798 41.7596397 -75.53512268 41.75737755 -76.83279419 41.75504684 C-80 41 -80 41 -82.40414429 38.09900284 C-83.89407753 35.20569155 -84.51160601 33.62398885 -84.53125 30.43359375 C-84.53640625 29.61826172 -84.5415625 28.80292969 -84.546875 27.96289062 C-84.53140625 27.12951172 -84.5159375 26.29613281 -84.5 25.4375 C-84.51546875 24.60025391 -84.5309375 23.76300781 -84.546875 22.90039062 C-84.52175371 18.93436621 -84.32099256 16.55727876 -82.3125 13.0703125 C-79.79402029 10.81559249 -77.63663402 9.67405764 -74.5 8.4375 C-71.371887 7.19570789 -69.3105158 6.31344519 -66.9296875 3.91015625 C-64.1753591 1.18370567 -62.0003547 1.09048386 -58.25 0.84375 C-54.51445186 1.10316307 -52.67239161 2.45486514 -50 5 C-49.566875 6.19625 -49.13375 7.3925 -48.6875 8.625 C-47.43197667 12.11322567 -47.43197667 12.11322567 -44.9609375 12.71875 C-43.36407297 12.98922868 -41.76501915 13.2470899 -40.1640625 13.4921875 C-38 14 -38 14 -35.4375 16.25 C-33.77831327 19.42409636 -33.67134161 21.46692232 -34 25 C-33.34 24.67 -32.68 24.34 -32 24 C-28.45108417 23.79911797 -25.74675858 23.69036839 -22.4375 25.0625 C-19.2758026 26.27853746 -17.29690521 25.60555402 -14 25 C-11.99690671 25.31421071 -9.99628664 25.6451046 -8 26 C-4.94982014 25.34261079 -4.94982014 25.34261079 -3.9375 23.25 C-3.4734375 22.13625 -3.4734375 22.13625 -3 21 C-2.66355469 20.30003906 -2.32710938 19.60007813 -1.98046875 18.87890625 C-0.7044761 15.13226647 -0.54366912 11.6195989 -0.375 7.6875 C-0.33632812 6.94693359 -0.29765625 6.20636719 -0.2578125 5.44335938 C-0.16418295 3.62928691 -0.08103149 1.81467884 0 0 Z M66 18 C65.67 18.66 65.34 19.32 65 20 C67.64 19.67 70.28 19.34 73 19 C73 18.67 73 18.34 73 18 C70.69 18 68.38 18 66 18 Z M-67 19 C-67.66 20.32 -68.32 21.64 -69 23 C-67.35 21.68 -65.7 20.36 -64 19 C-64.99 19 -65.98 19 -67 19 Z M-49 22 C-47.11683841 23.10836423 -47.11683841 23.10836423 -45 24 C-44.34 23.67 -43.68 23.34 -43 23 C-44.06645115 21.70366379 -44.06645115 21.70366379 -46.5625 21.9375 C-47.366875 21.958125 -48.17125 21.97875 -49 22 Z M-70 23 C-69 25 -69 25 -69 25 Z M0 26 C1 28 1 28 1 28 Z M-82 32 C-81.40072174 35.35595828 -80.15377564 37.37801226 -78 40 C-76.68 39.67 -75.36 39.34 -74 39 C-74.94875 38.21625 -75.8975 37.4325 -76.875 36.625 C-78.67704884 35.13635096 -80.34378848 33.65621152 -82 32 Z " fill="#FFFFFF" transform="translate(186,127)"/>
<path d="M0 0 C0.66 0 1.32 0 2 0 C2.81542431 2.08219049 3.62723189 4.16579761 4.4375 6.25 C5.11619141 7.99023438 5.11619141 7.99023438 5.80859375 9.765625 C7.42051144 14.14158514 8.12298412 17.61209675 8.11010742 22.28417969 C8.11097603 23.86667511 8.11097603 23.86667511 8.11186218 25.48114014 C8.10975235 26.61658264 8.10764252 27.75202515 8.10546875 28.921875 C8.11892555 31.33334228 8.13394884 33.74480123 8.15039062 36.15625 C8.17321095 39.95276758 8.18750543 43.74834473 8.17504883 47.54492188 C8.16621775 51.21292397 8.19517059 54.87906552 8.23046875 58.546875 C8.21823776 59.67422058 8.20600677 60.80156616 8.19340515 61.96307373 C8.29443917 68.56437834 9.13256208 72.4357215 13.61689758 77.39483643 C15.92683283 80.07563856 16.1242155 82.623685 16.11352539 86.01245117 C16.11344986 86.81305466 16.11337433 87.61365814 16.11329651 88.43852234 C16.10813522 89.29798965 16.10297394 90.15745697 16.09765625 91.04296875 C16.0962413 91.9265657 16.09482635 92.81016266 16.09336853 93.72053528 C16.08777069 96.54289128 16.07521861 99.36516797 16.0625 102.1875 C16.05748472 104.10091031 16.05292186 106.01432187 16.04882812 107.92773438 C16.03780197 112.61852014 16.02053883 117.30924663 16 122 C13.14299813 120.72590661 12.05788312 120.08068931 10.17578125 117.45703125 C7.30083256 114.21045544 5.45428312 114.07118689 1.1875 113.6875 C-3.99458249 113.43796328 -3.99458249 113.43796328 -8.47265625 115.734375 C-10.20681374 117.74272166 -11.66646625 119.70892886 -13 122 C-13.66 121.67 -14.32 121.34 -15 121 C-15.07448116 115.71642089 -15.12875795 110.43315137 -15.16479492 105.14916992 C-15.17982716 103.35386833 -15.20025857 101.55860312 -15.22631836 99.76342773 C-15.26294786 97.17422474 -15.2797821 94.58550972 -15.29296875 91.99609375 C-15.30845261 91.20101913 -15.32393646 90.40594452 -15.33988953 89.58677673 C-15.3417222 83.43783122 -14.31856595 78.36048826 -9.83959961 73.80053711 C-6.85170015 69.25187159 -7.49724941 64.50834126 -7.56640625 59.19140625 C-7.55679103 56.81054626 -7.54702033 54.4296869 -7.53710938 52.04882812 C-7.54566305 48.31673541 -7.56236634 44.58481813 -7.5847168 40.8527832 C-7.70356653 11.5553498 -7.70356653 11.5553498 0 0 Z M-4 12 C-3 14 -3 14 -3 14 Z M-5 14 C-5 15.98 -5 17.96 -5 20 C-4.67 20 -4.34 20 -4 20 C-4 18.02 -4 16.04 -4 14 C-4.33 14 -4.66 14 -5 14 Z M-6 23 C-5 27 -5 27 -5 27 Z M-13 81 C-12 83 -12 83 -12 83 Z M-14 84 C-13 87 -13 87 -13 87 Z " fill="#FFFFFF" transform="translate(191,12)"/>
<path d="M0 0 C2.05180714 -0.00218329 4.10307313 -0.02035943 6.15478516 -0.03930664 C7.46318359 -0.04124023 8.77158203 -0.04317383 10.11962891 -0.04516602 C11.90216064 -0.05132935 11.90216064 -0.05132935 13.72070312 -0.05761719 C18.43720113 0.27263725 22.76333675 0.75869807 26.18994141 4.18530273 C26.75514144 6.84067646 26.92782339 9.47674986 27.18994141 12.18530273 C24.21994141 12.84530273 21.24994141 13.50530273 18.18994141 14.18530273 C18.18994141 11.87530273 18.18994141 9.56530273 18.18994141 7.18530273 C7.62994141 7.18530273 -2.93005859 7.18530273 -13.81005859 7.18530273 C-13.81005859 17.41530273 -13.81005859 27.64530273 -13.81005859 38.18530273 C-3.25005859 38.18530273 7.30994141 38.18530273 18.18994141 38.18530273 C18.18994141 34.22530273 18.18994141 30.26530273 18.18994141 26.18530273 C12.57994141 26.18530273 6.96994141 26.18530273 1.18994141 26.18530273 C1.18994141 23.87530273 1.18994141 21.56530273 1.18994141 19.18530273 C9.76994141 19.18530273 18.34994141 19.18530273 27.18994141 19.18530273 C27.23119141 21.86655273 27.27244141 24.54780273 27.31494141 27.31030273 C27.33314941 28.14319824 27.35135742 28.97609375 27.37011719 29.83422852 C27.40340956 34.33514223 27.01538523 37.98550539 25.18994141 42.18530273 C22.08620037 45.28904377 18.33356554 44.51062823 14.16650391 44.52124023 C12.81992203 44.53122543 12.81992203 44.53122543 11.44613647 44.54141235 C9.54467827 44.55154856 7.64318442 44.55622907 5.74169922 44.5559082 C2.83322363 44.56027528 -0.07372733 44.59656693 -2.98193359 44.63452148 C-4.82828256 44.64039067 -6.67463875 44.64435938 -8.52099609 44.64624023 C-9.39090179 44.66061127 -10.2608075 44.6749823 -11.15707397 44.68978882 C-14.85300835 44.66185339 -17.15066567 44.58255632 -20.35742188 42.65063477 C-22.36869561 39.23721592 -22.38390589 36.1320946 -22.34130859 32.27905273 C-22.3451355 31.51733765 -22.3489624 30.75562256 -22.35290527 29.9708252 C-22.35562172 28.36375605 -22.34827904 26.7566425 -22.33154297 25.1496582 C-22.31012646 22.69308687 -22.33135038 20.23943962 -22.35693359 17.78295898 C-22.35429027 16.21915046 -22.34916518 14.65534376 -22.34130859 13.09155273 C-22.34940552 12.35916382 -22.35750244 11.6267749 -22.36584473 10.87219238 C-22.30437653 7.52050656 -22.04575627 5.51838288 -20.08935547 2.75366211 C-14.34487859 -1.19904991 -6.6905775 -0.00079745 0 0 Z " fill="#FFFFFF" transform="translate(59.81005859375,68.814697265625)"/>
<path d="M0 0 C0.85113373 -0.00960754 1.70226746 -0.01921509 2.57919312 -0.02911377 C3.50519318 -0.03336365 4.43119324 -0.03761353 5.38525391 -0.04199219 C6.33115387 -0.04769226 7.27705383 -0.05339233 8.25161743 -0.05926514 C10.25741451 -0.06873083 12.26322725 -0.07525532 14.26904297 -0.07910156 C17.34190966 -0.08880433 20.41410697 -0.11981176 23.48681641 -0.15136719 C25.43212492 -0.15789715 27.37743823 -0.16314765 29.32275391 -0.16699219 C30.24470551 -0.17933899 31.1666571 -0.19168579 32.11654663 -0.20440674 C32.97398468 -0.20140564 33.83142273 -0.19840454 34.71484375 -0.1953125 C35.46905609 -0.19895813 36.22326843 -0.20260376 37.00033569 -0.20635986 C39.55661421 0.26654361 40.40674959 1.13013411 41.98681641 3.16113281 C43.71722483 8.35235808 43.17273422 13.92254685 43.17211914 19.35742188 C43.17430151 21.52136014 43.19245763 23.68478498 43.21142578 25.84863281 C43.21436086 27.23144358 43.21634489 28.61425675 43.21728516 29.99707031 C43.22139404 31.25052246 43.22550293 32.50397461 43.22973633 33.79541016 C42.99396387 37.06210274 42.50290511 39.27426529 40.98681641 42.16113281 C38.70294837 43.30306683 37.39874548 43.29916619 34.86010742 43.32226562 C33.58352013 43.33667694 33.58352013 43.33667694 32.28114319 43.35137939 C30.89988503 43.35775421 30.89988503 43.35775421 29.49072266 43.36425781 C28.54623764 43.36995789 27.60175262 43.37565796 26.62864685 43.38153076 C24.62882612 43.39098574 22.62898977 43.39751671 20.62915039 43.40136719 C17.56515464 43.41108259 14.50182678 43.44210525 11.43798828 43.47363281 C9.49723707 43.48016177 7.55648104 43.48541266 5.61572266 43.48925781 C4.69690811 43.50160461 3.77809357 43.51395142 2.83143616 43.52667236 C1.9772258 43.52367126 1.12301544 43.52067017 0.24291992 43.51757812 C-0.88387428 43.52304657 -0.88387428 43.52304657 -2.03343201 43.52862549 C-4.58471309 43.05504228 -5.43529596 42.18777884 -7.01318359 40.16113281 C-8.74430799 34.96775962 -8.23864967 29.40204075 -8.25341797 23.96484375 C-8.26311823 21.80071496 -8.29415127 19.63753862 -8.32568359 17.47363281 C-8.33221487 16.09082593 -8.33746485 14.70801228 -8.34130859 13.32519531 C-8.35532715 11.44501709 -8.35532715 11.44501709 -8.36962891 9.52685547 C-7.75397631 3.71357693 -5.86744674 0.05323122 0 0 Z M-0.01318359 6.16113281 C-0.01318359 16.39113281 -0.01318359 26.62113281 -0.01318359 37.16113281 C11.53681641 37.16113281 23.08681641 37.16113281 34.98681641 37.16113281 C34.98681641 26.93113281 34.98681641 16.70113281 34.98681641 6.16113281 C23.43681641 6.16113281 11.88681641 6.16113281 -0.01318359 6.16113281 Z " fill="#FFFFFF" transform="translate(316.01318359375,69.8388671875)"/>
<path d="M0 0 C6 0 6 0 7.8359375 1.28515625 C8.59777344 2.16494141 8.59777344 2.16494141 9.375 3.0625 C11.75541749 5.66168671 14.13786679 8.0770757 16.8125 10.375 C20.66160516 13.69652511 24.44332548 17.08684824 28.21484375 20.49609375 C32.12815692 24.01423364 36.06694153 27.50394803 40 31 C40.33 20.77 40.66 10.54 41 0 C43.64 0 46.28 0 49 0 C49 14.52 49 29.04 49 44 C42.26094571 44 42.26094571 44 38.375 40.1875 C37.5190625 39.36894531 36.663125 38.55039063 35.78125 37.70703125 C34.8634375 36.81371094 33.945625 35.92039063 33 35 C30.97117315 33.11088675 28.92297106 31.24331314 26.875 29.375 C26.3682373 28.90916504 25.86147461 28.44333008 25.33935547 27.96337891 C21.8512168 24.75846033 18.31461334 21.61845135 14.71875 18.53515625 C12.74015319 16.76790955 10.87590062 14.87590062 9 13 C8.67 23.23 8.34 33.46 8 44 C5.36 44 2.72 44 0 44 C0 29.48 0 14.96 0 0 Z " fill="#FFFFFF" transform="translate(106,69)"/>
<path d="M0 0 C6.73963134 0 6.73963134 0 9.6875 2.875 C10.36167969 3.51179688 11.03585937 4.14859375 11.73046875 4.8046875 C12.85388672 5.89136719 12.85388672 5.89136719 14 7 C15.8289777 8.67144532 17.66253241 10.33789238 19.5 12 C20.43328125 12.85078125 21.3665625 13.7015625 22.328125 14.578125 C28.1237541 19.83147301 34.06077447 24.90923526 40 30 C40.33 20.1 40.66 10.2 41 0 C43.31 0 45.62 0 48 0 C48 14.19 48 28.38 48 43 C42 43 42 43 39.9453125 41.49609375 C39.34460938 40.81675781 38.74390625 40.13742188 38.125 39.4375 C35.59119627 36.70290428 33.08465662 34.1104845 30.25 31.6875 C26.20992568 28.21431358 22.29260898 24.61839192 18.38769531 20.99487305 C15.00462463 17.87068771 11.54810164 14.95675136 8 12 C7.67 22.23 7.34 32.46 7 43 C4.69 43 2.38 43 0 43 C0 28.81 0 14.62 0 0 Z " fill="#FFFFFF" transform="translate(380,70)"/>
<path d="M0 0 C15.51 0 31.02 0 47 0 C47 1.98 47 3.96 47 6 C40.4 6 33.8 6 27 6 C27 18.21 27 30.42 27 43 C24.36 43 21.72 43 19 43 C19 30.79 19 18.58 19 6 C12.73 6 6.46 6 0 6 C0 4.02 0 2.04 0 0 Z " fill="#FFFFFF" transform="translate(221,70)"/>
<path d="M0 0 C2.64 0 5.28 0 8 0 C8 14.52 8 29.04 8 44 C5.36 44 2.72 44 0 44 C0 29.48 0 14.96 0 0 Z " fill="#FFFFFF" transform="translate(9,69)"/>
<path d="M0 0 C2.64 0 5.28 0 8 0 C8 14.19 8 28.38 8 43 C5.36 43 2.72 43 0 43 C0 28.81 0 14.62 0 0 Z " fill="#FFFFFF" transform="translate(279,70)"/>
</svg>
